<svg width="20" height="20" viewBox="0 0 20 20" fill="none" xmlns="http://www.w3.org/2000/svg">
<path fill-rule="evenodd" clip-rule="evenodd" d="M6.0835 3.54167V2.5H7.25016V3.54167V3.98437V4.11784V4.15405V4.15556V4.15697V4.15951V4.16346V4.16486V4.16586L6.66683 4.16667L6.0835 4.16665V4.16565V4.16346V4.15951V4.15697V4.15556V4.15405V4.11784V3.98437V3.54167ZM13.3335 4.16667H6.66683H4.50016H3.3335V5.33333V16.3333V17.5H4.50016H15.5002H16.6668V16.3333V8.08333V6.91667V5.33333V4.16667H15.5002H13.3335ZM13.3335 4.16667L12.7502 4.16665V4.16565V4.16346V4.15951V4.15697V4.15556V4.15405V4.11784V3.98437V3.54167V2.5H13.9168V3.54167V3.98437V4.11784V4.15405V4.15556V4.15697V4.15951V4.16346V4.16486V4.16586L13.3335 4.16667ZM15.5002 5.33333H4.50016V6.91667H15.5002V5.33333ZM15.5002 8.08333H4.50016V16.3333H15.5002V8.08333ZM9.16683 11.1667H10.8335V9.83333H9.16683V11.1667ZM12.5002 12.9167V14.25H14.1668V12.9167H12.5002ZM14.1668 9.83333V11.1667H12.5002V9.83333H14.1668ZM7.50016 14.25V12.9167H5.8335V14.25H7.50016ZM5.8335 11.1667V9.83333H7.50016V11.1667H5.8335ZM9.16683 14.25H10.8335V12.9167H9.16683V14.25Z" fill="#575958"/>
</svg>
