<svg width="48" height="48" viewBox="0 0 48 48" fill="none" xmlns="http://www.w3.org/2000/svg">
<path d="M32.1289 31.7912C34.4644 29.3718 35.9011 26.0789 35.9011 22.4506C35.9011 15.022 29.8791 9 22.4506 9C15.022 9 9 15.022 9 22.4506C9 29.8791 15.022 35.9011 22.4506 35.9011C26.2507 35.9011 29.6828 34.3252 32.1289 31.7912ZM32.1289 31.7912C35.7251 35.3875 36.4037 36.0661 40 39.6623" stroke="#CDCECD" stroke-width="2.5" stroke-linecap="round" stroke-linejoin="round"/>
<path d="M22.7133 15C22.4753 14.9998 22.2398 15.0492 22.022 15.1452C21.8041 15.2411 21.6086 15.3814 21.4481 15.5572C21.2875 15.7329 21.1653 15.9402 21.0894 16.1658C21.0135 16.3915 20.9854 16.6304 21.0071 16.8675L21.6915 24.3787C21.718 24.6313 21.8371 24.865 22.0258 25.035C22.2145 25.2049 22.4594 25.2989 22.7133 25.2989C22.9673 25.2989 23.2122 25.2049 23.4009 25.035C23.5896 24.865 23.7087 24.6313 23.7352 24.3787L24.4177 16.8675C24.4393 16.6306 24.4114 16.3918 24.3355 16.1663C24.2597 15.9408 24.1377 15.7336 23.9774 15.5579C23.817 15.3822 23.6218 15.2418 23.4041 15.1458C23.1865 15.0497 22.9512 15.0001 22.7133 15ZM22.7133 30C23.1112 30 23.4927 29.842 23.774 29.5607C24.0553 29.2794 24.2133 28.8978 24.2133 28.5C24.2133 28.1022 24.0553 27.7206 23.774 27.4393C23.4927 27.158 23.1112 27 22.7133 27C22.3155 27 21.934 27.158 21.6527 27.4393C21.3714 27.7206 21.2133 28.1022 21.2133 28.5C21.2133 28.8978 21.3714 29.2794 21.6527 29.5607C21.934 29.842 22.3155 30 22.7133 30Z" fill="#CDCECD"/>
</svg>
