<svg width="28" height="29" viewBox="0 0 28 29" fill="none" xmlns="http://www.w3.org/2000/svg">
<rect y="0.5" width="28" height="28" rx="14" fill="#FB9E14"/>
<path fill-rule="evenodd" clip-rule="evenodd" d="M17.7922 13.7205C18.0784 13.421 18.0676 12.9463 17.7681 12.6601C17.4687 12.374 16.9939 12.3848 16.7078 12.6842L15.0259 14.4443L15.0259 8.25C15.0259 7.83579 14.6901 7.5 14.2759 7.5C13.8617 7.5 13.5259 7.83579 13.5259 8.25L13.5259 14.4985L11.7922 12.6842C11.5061 12.3848 11.0313 12.374 10.7319 12.6601C10.4324 12.9463 10.4216 13.421 10.7078 13.7205L13.5578 16.7031C13.773 16.9284 14.0761 17.03 14.3711 16.9923C14.5851 16.9649 14.7874 16.8652 14.9422 16.7031L17.7922 13.7205ZM21 15.75C21 15.3358 20.6642 15 20.25 15C19.8358 15 19.5 15.3358 19.5 15.75V20L9 20L9 15.75C9 15.3358 8.66421 15 8.25 15C7.83579 15 7.5 15.3358 7.5 15.75V20.25C7.5 20.9404 8.05964 21.5 8.75 21.5L19.75 21.5C20.4404 21.5 21 20.9404 21 20.25V15.75Z" fill="white"/>
</svg>
