<svg width="28" height="29" viewBox="0 0 28 29" fill="none" xmlns="http://www.w3.org/2000/svg">
<rect y="0.5" width="28" height="28" rx="14" fill="#8F7CF0"/>
<path fill-rule="evenodd" clip-rule="evenodd" d="M17.7922 10.7795C18.0784 11.0789 18.0676 11.5537 17.7681 11.8399C17.4687 12.126 16.9939 12.1152 16.7078 11.8157L15.0259 10.0556L15.0259 16.25C15.0259 16.6642 14.6901 17 14.2759 17C13.8617 17 13.5259 16.6642 13.5259 16.25L13.5259 10.0014L11.7922 11.8157C11.5061 12.1152 11.0313 12.126 10.7319 11.8399C10.4324 11.5537 10.4216 11.0789 10.7078 10.7795L13.5578 7.79687C13.773 7.57159 14.0761 7.46996 14.3711 7.50771C14.5851 7.53509 14.7874 7.63483 14.9422 7.79687L17.7922 10.7795ZM21 15.75C21 15.3358 20.6642 15 20.25 15C19.8358 15 19.5 15.3358 19.5 15.75V20L9 20L9 15.75C9 15.3358 8.66421 15 8.25 15C7.83579 15 7.5 15.3358 7.5 15.75V20.25C7.5 20.9403 8.05964 21.5 8.75 21.5L19.75 21.5C20.4404 21.5 21 20.9403 21 20.25V15.75Z" fill="white"/>
</svg>
