<svg width="28" height="29" viewBox="0 0 28 29" fill="none" xmlns="http://www.w3.org/2000/svg">
<rect y="0.5" width="28" height="28" rx="14" fill="#CA425B"/>
<path fill-rule="evenodd" clip-rule="evenodd" d="M8.75 8C7.7835 8 7 8.7835 7 9.75V19.75C7 20.7165 7.7835 21.5 8.75 21.5H18.75C19.7165 21.5 20.5 20.7165 20.5 19.75V9.75C20.5 8.7835 19.7165 8 18.75 8H14.75H12.75H8.75ZM11.0177 9.5H8.75C8.61193 9.5 8.5 9.61193 8.5 9.75V19.75C8.5 19.8881 8.61193 20 8.75 20H18.75C18.8881 20 19 19.8881 19 19.75V9.75C19 9.61193 18.8881 9.5 18.75 9.5H16.4823C16.494 9.58165 16.5 9.66512 16.5 9.75V11.75C16.5 12.7165 15.7165 13.5 14.75 13.5H12.75C11.7835 13.5 11 12.7165 11 11.75V9.75C11 9.66512 11.006 9.58165 11.0177 9.5ZM14.75 9.5H12.75C12.6119 9.5 12.5 9.61193 12.5 9.75V11.75C12.5 11.8881 12.6119 12 12.75 12H14.75C14.8881 12 15 11.8881 15 11.75V9.75C15 9.61193 14.8881 9.5 14.75 9.5Z" fill="white"/>
</svg>
