<svg width="48" height="48" viewBox="0 0 48 48" fill="none" xmlns="http://www.w3.org/2000/svg">
<path d="M23.4206 7.5872L13.6687 18.3169C13.4128 18.5925 13.275 18.96 13.275 19.3341C13.275 20.1741 13.9509 20.85 14.7909 20.85H16.425L11.6081 25.6669C11.3325 25.9425 11.175 26.3231 11.175 26.7169C11.175 27.5372 11.8378 28.2 12.6581 28.2H14.85L9.95435 34.0734C9.72466 34.3491 9.59998 34.6969 9.59998 35.0578C9.59998 35.9109 10.289 36.6 11.1422 36.6H22.2V38.7C22.2 39.8616 23.1384 40.8 24.3 40.8C25.4615 40.8 26.4 39.8616 26.4 38.7V36.6H37.4578C38.3109 36.6 39 35.9109 39 35.0578C39 34.6969 38.8753 34.3491 38.6456 34.0734L33.75 28.2H35.9418C36.7622 28.2 37.425 27.5372 37.425 26.7169C37.425 26.3231 37.2675 25.9425 36.9918 25.6669L32.175 20.85H33.809C34.6425 20.85 35.325 20.1741 35.325 19.3341C35.325 18.96 35.1872 18.5925 34.9312 18.3169L25.1793 7.5872C24.9562 7.33782 24.6347 7.20001 24.3 7.20001C23.9653 7.20001 23.6437 7.33782 23.4206 7.5872Z" stroke="#293332" stroke-width="2.4"/>
</svg>
