<svg width="20" height="20" viewBox="0 0 20 20" fill="none" xmlns="http://www.w3.org/2000/svg">
<path d="M9.75859 3.16133L5.69531 7.63203C5.58867 7.74687 5.53125 7.9 5.53125 8.05586C5.53125 8.40586 5.81289 8.6875 6.16289 8.6875H6.84375L4.83672 10.6945C4.72188 10.8094 4.65625 10.968 4.65625 11.132C4.65625 11.4738 4.93242 11.75 5.27422 11.75H6.1875L4.14766 14.1973C4.05195 14.3121 4 14.457 4 14.6074C4 14.9629 4.28711 15.25 4.64258 15.25H9.25V16.125C9.25 16.609 9.64102 17 10.125 17C10.609 17 11 16.609 11 16.125V15.25H15.6074C15.9629 15.25 16.25 14.9629 16.25 14.6074C16.25 14.457 16.198 14.3121 16.1023 14.1973L14.0625 11.75H14.9758C15.3176 11.75 15.5938 11.4738 15.5938 11.132C15.5938 10.968 15.5281 10.8094 15.4133 10.6945L13.4062 8.6875H14.0871C14.4344 8.6875 14.7188 8.40586 14.7188 8.05586C14.7188 7.9 14.6613 7.74687 14.5547 7.63203L10.4914 3.16133C10.3984 3.05742 10.2645 3 10.125 3C9.98555 3 9.85156 3.05742 9.75859 3.16133Z" stroke="#293332"/>
</svg>
