<svg width="24" height="24" viewBox="0 0 24 24" fill="none" xmlns="http://www.w3.org/2000/svg">
<path d="M17 8.5V3C17 2.44772 16.5523 2 16 2H2C1.44772 2 1 2.44772 1 3V20.3739C1 21.5122 2.17681 22.0564 2.82382 21.2173L3.11417 20.8407C3.55503 20.269 4.35384 20.5099 4.51208 21.2624C4.69018 22.1093 5.64365 22.2708 6.01366 21.5167L6.22263 21.0909C6.58569 20.351 7.47153 20.3074 7.88474 21.0092L8.04468 21.2808C8.50891 22.0692 9.49109 22.0692 9.95532 21.2808L10.1153 21.0092C10.5285 20.3074 11.4143 20.351 11.7774 21.0909L11.9863 21.5167C12.3564 22.2708 13.3098 22.1093 13.4879 21.2624C13.6462 20.5099 14.445 20.269 14.8858 20.8407L15.1762 21.2173C15.8232 22.0564 17 21.5122 17 20.3739V16" stroke="white" stroke-width="1.5"/>
<path fill-rule="evenodd" clip-rule="evenodd" d="M5 6.25C4.58579 6.25 4.25 6.58579 4.25 7C4.25 7.41421 4.58579 7.75 5 7.75H13C13.4142 7.75 13.75 7.41421 13.75 7C13.75 6.58579 13.4142 6.25 13 6.25H5ZM5 10.25C4.58579 10.25 4.25 10.5858 4.25 11C4.25 11.4142 4.58579 11.75 5 11.75H8C8.41421 11.75 8.75 11.4142 8.75 11C8.75 10.5858 8.41421 10.25 8 10.25H5Z" fill="white"/>
<path d="M17.8542 15.5C18.5667 14.7039 19 13.6525 19 12.5C19 10.0147 16.9853 8 14.5 8C12.0147 8 10 10.0147 10 12.5C10 14.9853 12.0147 17 14.5 17C15.8327 17 17.0302 16.4206 17.8542 15.5ZM17.8542 15.5L21.3542 19" stroke="white" stroke-width="1.5" stroke-linecap="round"/>
</svg>
