<svg width="24" height="24" viewBox="0 0 24 24" fill="none" xmlns="http://www.w3.org/2000/svg">
<path d="M14 20C14 20.5304 13.7893 21.0391 13.4142 21.4142C13.0391 21.7893 12.5304 22 12 22C11.4696 22 10.9609 21.7893 10.5858 21.4142C10.2107 21.0391 10 20.5304 10 20M5 11V16.7929C5 16.9255 4.94732 17.0527 4.85355 17.1464L3.14645 18.8536C3.05268 18.9473 3 19.0745 3 19.2071V19.5C3 19.7761 3.22386 20 3.5 20H20.5C20.7761 20 21 19.7761 21 19.5V19.2071C21 19.0745 20.9473 18.9473 20.8536 18.8536L19.1464 17.1464C19.0527 17.0527 19 16.9255 19 16.7929V11C19 7.9971 17.0952 5.34139 14.2763 4.3781C14.1135 4.32247 14 4.172 14 4V4C14 3.46957 13.7893 2.96086 13.4142 2.58579C13.0391 2.21071 12.5304 2 12 2C11.4696 2 10.9609 2.21071 10.5858 2.58579C10.2107 2.96086 10 3.46957 10 4V4C10 4.172 9.88647 4.32247 9.7237 4.3781C6.90482 5.34139 5 7.9971 5 11Z" stroke="white" stroke-width="1.5"/>
</svg>
