<svg width="24" height="24" viewBox="0 0 24 24" fill="none" xmlns="http://www.w3.org/2000/svg">
<path d="M5 22H19C20.1046 22 21 21.1046 21 20V7.70156C21 7.24742 20.8454 6.8068 20.5617 6.45217L17.6005 2.75061C17.2209 2.27618 16.6463 2 16.0388 2H5C3.89543 2 3 2.89543 3 4V20C3 21.1046 3.89543 22 5 22Z" stroke="white" stroke-width="1.5"/>
<path d="M6.84863 18V13.7578H7.72754V17.2734H9.55566V18H6.84863ZM13.8389 15.8789C13.8389 17.2646 12.9805 18.0586 11.8584 18.0586C10.7275 18.0586 9.87207 17.2588 9.87207 15.8789C9.87207 14.4932 10.7275 13.6992 11.8584 13.6992C12.9805 13.6992 13.8389 14.4932 13.8389 15.8789ZM10.7686 15.8789C10.7686 16.7842 11.1992 17.2764 11.8584 17.2793C12.5117 17.2764 12.9453 16.7842 12.9424 15.8789C12.9453 14.9707 12.5117 14.4814 11.8584 14.4785C11.1992 14.4814 10.7686 14.9707 10.7686 15.8789ZM17.29 15.123C17.1699 14.7246 16.8506 14.4814 16.3877 14.4785C15.7314 14.4814 15.2861 14.9824 15.2861 15.873C15.2861 16.7695 15.7168 17.2764 16.3936 17.2793C17 17.2764 17.3604 16.9336 17.3721 16.4004H16.4521V15.7383H18.2217V16.2656C18.2217 17.3789 17.457 18.0586 16.3877 18.0586C15.1982 18.0586 14.3896 17.2266 14.3896 15.8848C14.3896 14.5078 15.251 13.6992 16.3701 13.6992C17.3281 13.6992 18.0635 14.2881 18.1807 15.123H17.29Z" fill="white"/>
<path d="M6.48438 8.10938V7.63281L8.42188 6.77344V7.32422L7.10547 7.85742V7.88086L8.42188 8.41406V8.96484L6.48438 8.10938ZM10.207 6.03906L9.29297 9.42578H8.79688L9.70703 6.03906H10.207ZM12.5195 8.10938L10.582 8.96484V8.41406L11.8984 7.88086V7.85742L10.582 7.32422V6.77344L12.5195 7.63281V8.10938Z" fill="white"/>
</svg>
