<svg width="24" height="24" viewBox="0 0 24 24" fill="none" xmlns="http://www.w3.org/2000/svg">
<path fill-rule="evenodd" clip-rule="evenodd" d="M14.041 1.75188C13.3088 1.71179 12.75 2.30792 12.75 2.98711V10.9871C12.75 11.6775 13.3096 12.2371 14 12.2371H22C22.6792 12.2371 23.2753 11.6783 23.2352 10.9461C22.9639 5.99168 18.9954 2.02316 14.041 1.75188ZM14.25 10.7371V3.2707C18.2075 3.62708 21.36 6.77959 21.7164 10.7371H14.25ZM3.25 13.4871C3.25 8.93076 6.94365 5.23711 11.5 5.23711V3.73711C6.11522 3.73711 1.75 8.10233 1.75 13.4871C1.75 18.8719 6.11522 23.2371 11.5 23.2371C16.8848 23.2371 21.25 18.8719 21.25 13.4871H19.75C19.75 18.0435 16.0563 21.7371 11.5 21.7371C6.94365 21.7371 3.25 18.0435 3.25 13.4871Z" fill="white"/>
</svg>
