<svg width="20" height="20" viewBox="0 0 20 20" fill="none" xmlns="http://www.w3.org/2000/svg">
<path d="M15 16.5V4.5C15 4.10218 14.842 3.72064 14.5607 3.43934C14.2794 3.15804 13.8978 3 13.5 3H6C5.60218 3 5.22064 3.15804 4.93934 3.43934C4.65804 3.72064 4.5 4.10218 4.5 4.5V16.5M15 16.5H16.5M15 16.5H11.25M4.5 16.5H3M4.5 16.5H8.25M11.25 16.5V12.75C11.25 12.5511 11.171 12.3603 11.0303 12.2197C10.8897 12.079 10.6989 12 10.5 12H9C8.80109 12 8.61032 12.079 8.46967 12.2197C8.32902 12.3603 8.25 12.5511 8.25 12.75V16.5M11.25 16.5H8.25M7.5 6H8.25M7.5 9H8.25M11.25 6H12M11.25 9H12" stroke="#293332" stroke-width="1.5" stroke-linecap="round" stroke-linejoin="round"/>
</svg>
