<svg width="48" height="48" viewBox="0 0 48 48" fill="none" xmlns="http://www.w3.org/2000/svg">
<path d="M36 39.6V10.8C36 9.84523 35.6207 8.92956 34.9455 8.25443C34.2704 7.5793 33.3547 7.20001 32.4 7.20001H14.4C13.4452 7.20001 12.5295 7.5793 11.8544 8.25443C11.1792 8.92956 10.8 9.84523 10.8 10.8V39.6M36 39.6H39.6M36 39.6H27M10.8 39.6H7.19995M10.8 39.6H19.8M27 39.6V30.6C27 30.1226 26.8103 29.6648 26.4727 29.3272C26.1352 28.9897 25.6773 28.8 25.2 28.8H21.6C21.1226 28.8 20.6647 28.9897 20.3272 29.3272C19.9896 29.6648 19.8 30.1226 19.8 30.6V39.6M27 39.6H19.8M18 14.4H19.8M18 21.6H19.8M27 14.4H28.8M27 21.6H28.8" stroke="#293332" stroke-width="2.5" stroke-linecap="round" stroke-linejoin="round"/>
</svg>
