<svg width="48" height="48" viewBox="0 0 48 48" fill="none" xmlns="http://www.w3.org/2000/svg">
<path fill-rule="evenodd" clip-rule="evenodd" d="M9.16663 8.91669C9.85698 8.91669 10.4166 9.47633 10.4166 10.1667V11.25H25.4166V10.1667C25.4166 9.47633 25.9763 8.91669 26.6666 8.91669C27.357 8.91669 27.9166 9.47633 27.9166 10.1667V14.8334C27.9166 15.5237 27.357 16.0834 26.6666 16.0834C25.9763 16.0834 25.4166 15.5237 25.4166 14.8334V13.75H10.4166V14.8334C10.4166 15.5237 9.85698 16.0834 9.16663 16.0834C8.47627 16.0834 7.91663 15.5237 7.91663 14.8334V12.5V10.1667C7.91663 9.47633 8.47627 8.91669 9.16663 8.91669Z" fill="#293332"/>
<path fill-rule="evenodd" clip-rule="evenodd" d="M39.68 40.8C39.9771 40.8 40.262 40.682 40.472 40.4719C40.682 40.2619 40.8 39.977 40.8 39.68V8.31999C40.8 8.02295 40.682 7.73807 40.472 7.52803C40.262 7.31799 39.9771 7.19999 39.68 7.19999H30.72C30.423 7.19999 30.1381 7.31799 29.9281 7.52803C29.718 7.73807 29.6 8.02295 29.6 8.31999V29.6H8.32005C8.02301 29.6 7.73813 29.718 7.52809 29.928C7.31805 30.1381 7.20005 30.4229 7.20005 30.72V39.68C7.20005 39.977 7.31805 40.2619 7.52809 40.4719C7.73813 40.682 8.02301 40.8 8.32005 40.8H39.68ZM38.56 31.672V38.56H31.672V31.672H38.56ZM38.56 29.768V9.43999H31.84V11.848H34.64C34.8925 11.848 35.1347 11.9483 35.3132 12.1268C35.4917 12.3054 35.592 12.5475 35.592 12.8C35.592 13.0525 35.4917 13.2946 35.3132 13.4732C35.1347 13.6517 34.8925 13.752 34.64 13.752H31.84V16.328H35.76C36.0125 16.328 36.2547 16.4283 36.4332 16.6068C36.6117 16.7854 36.712 17.0275 36.712 17.28C36.712 17.5325 36.6117 17.7746 36.4332 17.9532C36.2547 18.1317 36.0125 18.232 35.76 18.232H31.84V20.808H34.64C34.8925 20.808 35.1347 20.9083 35.3132 21.0868C35.4917 21.2654 35.592 21.5075 35.592 21.76C35.592 22.0125 35.4917 22.2546 35.3132 22.4332C35.1347 22.6117 34.8925 22.712 34.64 22.712H31.84V25.288H34.64C34.8925 25.288 35.1347 25.3883 35.3132 25.5668C35.4917 25.7454 35.592 25.9875 35.592 26.24C35.592 26.4925 35.4917 26.7346 35.3132 26.9132C35.1347 27.0917 34.8925 27.192 34.64 27.192H31.84V29.768H38.56ZM29.768 31.84H27.192V34.64C27.192 34.8925 27.0917 35.1346 26.9132 35.3132C26.7347 35.4917 26.4925 35.592 26.24 35.592C25.9876 35.592 25.7454 35.4917 25.5669 35.3132C25.3883 35.1346 25.288 34.8925 25.288 34.64V31.84H22.712V34.64C22.712 34.8925 22.6117 35.1346 22.4332 35.3132C22.2547 35.4917 22.0125 35.592 21.76 35.592C21.5076 35.592 21.2654 35.4917 21.0869 35.3132C20.9083 35.1346 20.808 34.8925 20.808 34.64V31.84H18.232V35.76C18.232 36.0125 18.1317 36.2546 17.9532 36.4332C17.7747 36.6117 17.5325 36.712 17.28 36.712C17.0276 36.712 16.7854 36.6117 16.6069 36.4332C16.4283 36.2546 16.328 36.0125 16.328 35.76V31.84H13.752V34.64C13.752 34.8925 13.6517 35.1346 13.4732 35.3132C13.2947 35.4917 13.0525 35.592 12.8 35.592C12.5476 35.592 12.3054 35.4917 12.1269 35.3132C11.9483 35.1346 11.848 34.8925 11.848 34.64V31.84H9.44005V38.56H29.768V31.84Z" fill="#293332"/>
</svg>
