<svg width="20" height="20" viewBox="0 0 20 20" fill="none" xmlns="http://www.w3.org/2000/svg">
<path fill-rule="evenodd" clip-rule="evenodd" d="M16.5333 17C16.6571 17 16.7758 16.9508 16.8633 16.8633C16.9508 16.7758 17 16.6571 17 16.5333V3.46667C17 3.3429 16.9508 3.2242 16.8633 3.13668C16.7758 3.04917 16.6571 3 16.5333 3H12.8C12.6762 3 12.5575 3.04917 12.47 3.13668C12.3825 3.2242 12.3333 3.3429 12.3333 3.46667V12.3333H3.46667C3.3429 12.3333 3.2242 12.3825 3.13668 12.47C3.04917 12.5575 3 12.6762 3 12.8V16.5333C3 16.6571 3.04917 16.7758 3.13668 16.8633C3.2242 16.9508 3.3429 17 3.46667 17H16.5333ZM16.0667 13.1967V16.0667H13.1967V13.1967H16.0667ZM16.0667 12.4033V3.93333H13.2667V4.93667H14.4333C14.5385 4.93667 14.6394 4.97846 14.7138 5.05285C14.7882 5.12724 14.83 5.22813 14.83 5.33333C14.83 5.43854 14.7882 5.53943 14.7138 5.61382C14.6394 5.68821 14.5385 5.73 14.4333 5.73H13.2667V6.80333H14.9C15.0052 6.80333 15.1061 6.84513 15.1805 6.91951C15.2549 6.9939 15.2967 7.0948 15.2967 7.2C15.2967 7.3052 15.2549 7.4061 15.1805 7.48048C15.1061 7.55487 15.0052 7.59667 14.9 7.59667H13.2667V8.67H14.4333C14.5385 8.67 14.6394 8.71179 14.7138 8.78618C14.7882 8.86057 14.83 8.96146 14.83 9.06667C14.83 9.17187 14.7882 9.27276 14.7138 9.34715C14.6394 9.42154 14.5385 9.46333 14.4333 9.46333H13.2667V10.5367H14.4333C14.5385 10.5367 14.6394 10.5785 14.7138 10.6528C14.7882 10.7272 14.83 10.8281 14.83 10.9333C14.83 11.0385 14.7882 11.1394 14.7138 11.2138C14.6394 11.2882 14.5385 11.33 14.4333 11.33H13.2667V12.4033H16.0667ZM12.4033 13.2667H11.33V14.4333C11.33 14.5385 11.2882 14.6394 11.2138 14.7138C11.1394 14.7882 11.0385 14.83 10.9333 14.83C10.8281 14.83 10.7272 14.7882 10.6528 14.7138C10.5785 14.6394 10.5367 14.5385 10.5367 14.4333V13.2667H9.46333V14.4333C9.46333 14.5385 9.42154 14.6394 9.34715 14.7138C9.27276 14.7882 9.17187 14.83 9.06667 14.83C8.96146 14.83 8.86057 14.7882 8.78618 14.7138C8.71179 14.6394 8.67 14.5385 8.67 14.4333V13.2667H7.59667V14.9C7.59667 15.0052 7.55487 15.1061 7.48048 15.1805C7.4061 15.2549 7.3052 15.2967 7.2 15.2967C7.0948 15.2967 6.9939 15.2549 6.91951 15.1805C6.84513 15.1061 6.80333 15.0052 6.80333 14.9V13.2667H5.73V14.4333C5.73 14.5385 5.68821 14.6394 5.61382 14.7138C5.53943 14.7882 5.43854 14.83 5.33333 14.83C5.22813 14.83 5.12724 14.7882 5.05285 14.7138C4.97846 14.6394 4.93667 14.5385 4.93667 14.4333V13.2667H3.93333V16.0667H12.4033V13.2667Z" fill="#293332"/>
<path fill-rule="evenodd" clip-rule="evenodd" d="M3.5 3.5C3.77614 3.5 4 3.72386 4 4V4.5H10.5V4C10.5 3.72386 10.7239 3.5 11 3.5C11.2761 3.5 11.5 3.72386 11.5 4V6C11.5 6.27614 11.2761 6.5 11 6.5C10.7239 6.5 10.5 6.27614 10.5 6V5.5H4V6C4 6.27614 3.77614 6.5 3.5 6.5C3.22386 6.5 3 6.27614 3 6V5V4C3 3.72386 3.22386 3.5 3.5 3.5Z" fill="#293332"/>
</svg>
