<svg width="48" height="48" viewBox="0 0 48 48" fill="none" xmlns="http://www.w3.org/2000/svg">
<path fill-rule="evenodd" clip-rule="evenodd" d="M15.65 16.8C15.65 12.1884 19.3884 8.45001 24 8.45001C28.6116 8.45001 32.35 12.1884 32.35 16.8C32.35 21.4094 28.6151 25.1465 24.0065 25.15C24.0043 25.15 24.0021 25.15 24 25.15C19.3884 25.15 15.65 21.4116 15.65 16.8ZM18.4887 26.148C15.2933 24.26 13.15 20.7803 13.15 16.8C13.15 10.8077 18.0077 5.95001 24 5.95001C29.9923 5.95001 34.85 10.8077 34.85 16.8C34.85 20.7803 32.7067 24.26 29.5113 26.148C35.4353 28.3774 39.65 34.0965 39.65 40.8V42.05H38.4H9.59998H8.34998V40.8C8.34998 34.0965 12.5647 28.3774 18.4887 26.148ZM24 27.65C17.159 27.65 11.5381 32.8738 10.9086 39.55H37.0913C36.4618 32.8738 30.8409 27.65 24 27.65Z" fill="#293332"/>
</svg>
