<svg width="20" height="20" viewBox="0 0 20 20" fill="none" xmlns="http://www.w3.org/2000/svg">
<path fill-rule="evenodd" clip-rule="evenodd" d="M6.75 7C6.75 5.20507 8.20507 3.75 10 3.75C11.7949 3.75 13.25 5.20507 13.25 7C13.25 8.79395 11.7965 10.2484 10.0029 10.25C10.0019 10.25 10.001 10.25 10 10.25C8.20507 10.25 6.75 8.79493 6.75 7ZM7.21601 10.849C6.02482 9.98597 5.25 8.58347 5.25 7C5.25 4.37665 7.37665 2.25 10 2.25C12.6234 2.25 14.75 4.37665 14.75 7C14.75 8.58347 13.9752 9.98597 12.784 10.849C15.123 11.9094 16.75 14.2647 16.75 17V17.75H16H4H3.25V17C3.25 14.2647 4.87699 11.9094 7.21601 10.849ZM10 11.75C7.35515 11.75 5.16709 13.7058 4.80317 16.25H15.1968C14.8329 13.7058 12.6449 11.75 10 11.75Z" fill="#293332"/>
</svg>
