<svg width="804" height="507" viewBox="0 0 804 507" fill="none" xmlns="http://www.w3.org/2000/svg">
<g style="mix-blend-mode:multiply">
<g opacity="0.25">
<path d="M473.232 286.346H472.199L470.134 283.248H469.101L464.453 277.567L461.354 274.64V273.779L459.288 271.885V270.852H458.771L457.738 269.303L456.706 268.959L456.189 267.926L453.607 266.893V266.377L451.541 265.516V264.999L449.475 264.138L448.786 263.106L445.688 261.556V261.04L444.138 260.351L443.622 259.318L441.556 258.457L441.039 257.424H440.007L439.49 256.219L437.941 255.531L436.908 253.981H435.875L435.358 252.776H434.325L432.26 249.85H431.227L426.923 244.685H425.89V243.996L424.341 242.619V241.758L420.209 237.627V236.594L419.176 235.905L417.454 233.667V232.634L420.037 229.708L421.07 230.052L422.103 228.675H423.135L423.652 227.986H425.201V227.297H426.234L426.751 226.609H427.784L428.3 225.92H429.333L429.849 225.232H431.399L432.948 223.338L433.981 223.682L434.498 222.821H435.531L438.629 220.239H440.179V219.206L443.277 216.796L445.343 215.763L445.86 214.386L447.409 213.697V212.664L448.959 211.976V210.943L449.992 210.598V209.738H451.024V208.533L452.057 208.188L452.574 206.811H453.09L453.607 205.09L454.64 204.745L455.156 203.024L456.706 202.679L458.255 200.958L459.288 201.302L460.321 200.097L461.354 200.441L461.87 199.581H462.903L464.969 197.687H466.002L469.617 194.76H470.65L471.167 194.072L472.716 193.383V192.35H473.232L475.298 190.456H476.331V189.768L477.364 188.563L479.43 187.53V186.497L480.979 185.808V184.775L482.701 184.087V183.054L483.734 182.882V181.332L484.767 181.504V179.955L489.415 177.028V175.995L493.547 174.79V173.93L496.645 173.069V172.208L501.294 170.142V169.109L502.326 169.281L505.942 164.633H506.975V163.772H508.008V162.912H509.04L511.106 160.674V159.124L512.656 158.436L513.689 155.853H514.722L515.754 152.927H516.787V151.205H517.82V149.484H518.853L519.37 147.418H519.886L520.403 144.147H520.919V143.286H521.436V141.565H521.952V140.704H522.468V138.294H523.501V134.678H524.534V130.03L525.567 129.686V121.423H525.912V119.529H526.428L525.395 113.159V105.068L524.19 104.379V100.075L523.157 99.3868V95.9437L522.124 95.255V92.8449H521.608V91.812H521.091V89.7461H520.575V88.1967H520.058V87.1638H519.542V85.098H519.025L518.509 82.3435H517.476V81.827L518.509 82.1713L519.025 83.3764H520.058L521.091 85.098H522.124L522.641 86.303H523.674L525.739 89.2297H526.772L530.904 94.3943L534.003 96.9766L535.552 99.5589H536.585L537.102 101.28L539.684 103.691V104.551L542.266 106.962V107.822L543.299 108.511V109.544L544.849 110.749V111.782L545.881 112.298V113.331L546.914 114.02L547.431 115.569H547.947L579.796 150.861L580.829 151.55V152.582L581.862 153.271L582.378 154.82H582.895L590.297 163.256L591.33 163.6L592.363 165.15H593.396L594.945 167.56H595.978L597.528 169.97H598.561L601.659 174.102L608.373 180.988L610.439 183.742L619.219 193.039L619.736 194.072L621.802 194.932L622.318 195.965L624.384 196.654L625.072 197.859L645.387 217.657H646.42L647.969 220.583H648.485V221.616L649.691 222.305V222.821L650.724 223.51V224.371L651.756 225.059V226.092L653.306 227.297L661.741 235.905L662.774 236.249L663.291 237.282H664.324L665.357 239.176H666.39L667.422 240.898H668.455L670.005 243.308H671.038L675.169 248.472H676.202V248.989L677.752 250.366V251.227L682.4 255.875L689.286 262.417V262.933H690.319V263.622L691.352 264.311L693.418 265.171L696 267.065L696.689 268.098L698.238 269.303H699.271L700.82 270.68L701.337 271.713L702.886 272.918H703.919L704.952 274.296L705.469 275.328L713.732 283.592L725.783 295.643L726.816 296.676H727.676L728.193 297.881L754.705 322.154V322.671L756.254 323.876L771.748 340.919H772.781L774.847 344.018H775.88L776.396 345.223L779.495 348.15L781.561 350.388L784.143 353.659L786.209 356.413L787.758 358.651L788.791 360.201L790.341 363.472L792.406 366.226L793.439 368.292L793.956 369.325L795.677 372.424V373.801H796.194L796.71 375.867H797.227V377.416H797.743V378.449H798.26V379.998H798.776V381.548H799.293V382.925H799.809L803.08 397.558V403.239H803.769L803.424 415.634H802.908V418.905H802.391V421.143H801.875V423.381H801.359V425.275H800.842V426.996H800.326V428.374H799.809L799.293 431.473H798.776V432.333H798.26V433.71H797.743V434.571H797.227V435.949H796.71L795.677 438.531H795.161V439.392H794.644V440.252H794.3V441.113H793.784L792.751 443.695H792.234L791.718 444.901L790.685 445.245L790.169 446.966L789.136 447.311V448.171L787.586 448.86V449.721L786.037 450.409V451.442L783.971 452.475V453.508L779.323 456.263L775.191 459.878H774.158L772.609 461.427L771.576 461.083L770.543 462.288H769.51L768.477 463.321H767.444L766.928 464.01H765.378V464.698H763.312L762.796 465.559L759.697 465.903L759.181 466.764L754.533 467.281V467.797H752.467V468.314L750.917 467.969V468.486H749.884V468.83L748.335 468.486V469.002L746.786 468.658V469.174H745.236V469.346L743.687 469.002V469.519L741.621 469.174V469.691L739.555 469.346V469.863L736.973 469.346V469.863C736.973 469.863 721.651 467.969 715.453 466.248C709.256 464.698 693.59 458.845 693.59 458.845L691.18 458.156H690.491V457.468L687.737 456.435V456.091L685.671 455.058V454.713H684.121V453.853L682.056 452.992V452.475L679.99 451.615L679.473 450.582L676.375 449.032V448.516L661.225 439.047V438.531L659.159 438.187V437.67L657.61 437.326V436.809L656.06 436.465V435.949L654.511 435.088L630.581 418.733H629.548L627.483 415.806H626.622L612.161 404.444V403.928L610.095 403.067V402.551L608.546 402.206V401.69L605.447 400.14V399.624H604.414V398.935L602.348 398.075L601.832 397.042L598.733 395.492L598.044 394.459H597.011V393.771L595.462 392.91L594.945 391.877H593.913L592.88 390.155H591.847L591.33 388.95H590.297L588.231 386.024H587.199L569.983 371.735V371.219L566.884 369.669V369.153H565.851V368.464H564.818V367.775L561.72 366.226L561.203 365.193L559.137 364.332L558.621 363.299L556.555 362.439L555.522 360.889H554.489L553.973 359.684H552.94L551.907 357.79C551.907 357.79 534.175 343.846 527.633 337.476C521.091 331.279 499.744 312.342 497.334 309.587L495.268 307.866V306.833L492.686 304.423L492.169 302.873L491.136 301.324L472.372 284.625L473.232 286.346Z" fill="#EDF2F8"/>
<path d="M99.315 173.757V174.79L103.447 177.545V178.406L107.751 181.16V182.193L109.3 182.365V182.882L109.816 183.914L111.538 185.636L112.571 185.808V187.358L113.604 187.53L114.637 190.112H115.153V191.145L116.186 191.834V193.211L117.219 193.555L117.391 194.416L118.424 194.588L119.457 197.342H120.49V198.375L121.523 198.548L124.277 203.024L125.31 203.196V204.056L129.442 207.327V208.36L130.647 208.533V209.393L133.229 210.77V211.803L134.262 211.976V213.009L137.878 215.074L138.394 216.107L139.943 216.452L140.632 217.485L141.665 217.829V218.345L143.214 219.034V219.895L145.28 220.411V221.444L147.863 222.821L155.437 231.773V232.806L156.47 232.978L162.151 239.52V240.381L163.356 240.553V241.414L164.906 241.758V242.791L165.939 242.963V243.996L172.825 248.644L174.891 250.366V250.882L175.924 251.055V251.571L177.129 251.743L177.645 252.776L179.195 253.121L179.711 254.153L181.26 254.498V255.014L183.326 255.875V256.736L185.909 258.285V259.146L187.114 259.318V260.351L188.147 260.523L189.696 262.245V263.278L190.729 263.45L190.901 264.483L191.762 264.655L194.516 267.409V268.442L195.549 268.614L203.985 276.017V277.05L205.534 277.222V278.255L208.117 279.632V280.149L209.838 280.321L209.666 281.01L211.904 281.87V282.731L213.97 283.075V284.108L217.585 285.313L218.274 286.346L220.34 286.691V287.724L222.922 288.068L223.438 289.273L226.021 289.789V290.134L227.742 290.478V290.994L229.808 291.339V291.855L233.423 292.544L233.94 293.577L239.793 294.782L240.309 295.815L245.646 296.676V297.192L247.023 297.364V298.053L249.778 298.397V298.914L250.811 299.086L251.327 300.291L255.459 301.324V302.357L274.396 307.866L281.11 309.071V308.554L282.315 308.726V308.382L292.128 309.243V308.21L301.596 307.521V306.488L302.974 306.661L302.629 306.833V307.866L300.047 309.415L296.948 311.653V312.514L295.399 312.686L291.956 315.785L290.923 315.612L289.373 317.334L288.34 317.162L286.791 318.711L285.758 318.539L284.725 319.744L283.692 319.572L283.176 320.433L281.626 320.605V321.121L280.594 320.949L280.077 321.638L278.528 321.982V322.327L275.429 322.671L274.912 323.704H273.019V324.22L271.986 324.048V324.565L270.781 324.22V324.737L267.854 325.081V325.597L266.305 325.253V325.77L265.96 326.975L265.1 326.803L262.517 329.213L260.107 328.868V329.901L257.181 331.623L252.532 335.582L251.327 335.41L247.368 337.993L241.17 340.747L239.621 341.091V341.436L238.588 341.264L238.071 342.124L236.006 342.296L235.489 342.985L234.456 342.813L233.595 343.674L232.39 343.502V343.846L231.357 343.674V344.19L230.324 344.018L230.497 344.534L229.464 344.19V344.879L228.431 344.534V345.051L227.398 344.879V345.395L224.299 345.74V346.256L222.75 345.912V346.428L221.717 346.256V346.772L220.167 346.428V346.772L218.618 347.289V347.805L217.069 347.461V347.978L215.519 347.805V348.15L208.461 351.076L206.395 353.142L205.362 352.97L203.296 354.864L202.263 354.692L201.23 356.069L200.197 355.724L199.165 356.93L198.132 356.757L197.615 357.618L195.549 357.79L195.033 358.651L193.656 358.823V359.34L191.418 359.512L190.901 360.2L187.974 360.545V361.061L186.942 360.889V361.406L185.909 361.233V361.75L184.876 361.406V361.922L181.777 362.266V362.783L180.228 362.438V362.955L179.195 362.783V363.299L177.645 362.955V363.471L176.612 363.299V363.816L175.063 363.471V363.988L173.513 363.644V364.16L163.873 367.947L162.668 367.775L160.774 369.841L159.741 369.497L158.708 370.874L157.675 370.702L156.642 371.907L155.609 371.563L155.093 372.596L154.06 372.251L153.027 373.629H150.961L150.445 374.661H148.379L147.863 375.522L144.936 375.867L144.247 376.727L142.87 376.383L142.354 377.244L125.31 380.343L123.244 379.998V380.343L121.179 379.998V380.515L119.113 380.17V380.687L117.047 380.17V380.687L114.465 380.17V380.687L111.882 380.17V380.687L107.923 379.998V380.343L88.8136 377.416V376.899L82.616 375.694V375.178L78.4844 374.489L78.3122 373.973L75.3856 373.456V372.94L73.1475 372.596V372.079L70.5652 371.563V371.218L64.8841 369.153V368.636L63.3348 368.464V367.947L59.7195 366.742V366.226L58.6866 366.054V365.537L57.1372 365.365V364.849L56.1042 364.677V364.16L54.5548 363.816V363.471L52.489 362.438V362.094L50.9396 361.75V361.406L47.8408 359.856V359.34L46.808 359.168V358.651L44.7421 357.79L44.2256 356.757L41.1268 355.208L40.6104 354.175L38.5445 353.314V352.798L36.9952 352.109L36.4787 351.076L35.4458 350.904L34.9293 349.871L33.8964 349.699L32.6913 347.978L31.8305 347.805L30.7976 346.256L29.7646 346.084L28.5596 344.362L27.0102 343.502L22.362 337.993L21.3291 337.82L17.7138 332.828L16.6809 332.656L14.0986 329.385V328.352L13.0656 327.663V327.319L11.8606 326.458V325.597L10.3112 324.392V323.359L8.76179 322.154V321.294L7.72891 320.605L7.2124 319.056L6.69596 318.883V318.023L5.66301 317.334L5.14657 315.785H4.63012L4.11362 313.719L3.08073 313.03V312.169L1.87566 310.964V310.104L1.53134 309.931V309.071L1.0149 308.898L0.842706 307.866H0.49839L-0.706686 304.767H-1.051L-1.73957 302.184L-2.25608 302.012V301.152H-2.77252V299.602H-3.28896L-3.80547 297.536H-4.32191L-5.35486 292.544L-5.8713 292.372V290.994H-6.55994V289.445H-6.90425L-7.59282 286.002H-8.10933V283.936H-8.62577L-9.14221 278.083L-8.10933 237.971L-7.59282 238.143V236.594H-7.07638V235.216L-6.55994 235.389L-5.18267 229.535H-4.66623V228.675H-4.14979V227.297L-3.63328 227.469L-3.11684 225.576L-2.60039 225.748V224.371H-2.08389L-1.56744 222.477L-1.051 222.649V221.272L-0.190243 220.928V220.067L0.842706 219.206V218.345H1.53134L1.35915 217.485H1.87566V216.624L2.90854 216.279L3.42505 214.558L4.45793 214.214V213.353L5.49088 213.009L6.00732 211.115L6.86815 210.77V209.91L8.58967 209.221V208.36L9.96687 207.672V206.639L12.5492 205.262V204.401L14.615 203.196V202.335L15.648 201.474L17.1974 201.302V200.441L18.2303 200.097L19.2632 198.892L21.6734 198.031V196.998L22.7063 196.31L23.7393 196.482L25.2887 194.76L26.3215 195.104L28.3874 193.039L29.4203 193.211L30.4533 192.006L31.4862 192.178L32.5191 190.973L33.5521 191.145L34.0685 190.284L36.1343 190.112L36.6508 189.423L38.2002 189.079V188.563H40.2661L40.6104 187.702L41.6433 188.046L42.6762 187.185L43.8813 187.358V186.841L44.7421 187.013V186.669L45.9471 186.841L46.2914 185.98L47.8408 186.152V185.808L49.9067 185.636V185.12L51.4561 185.464V184.947H53.522V184.431L55.0714 184.775V184.259L56.1042 184.431V183.914L62.6461 183.742V183.226L64.3676 183.57V183.054L65.917 183.398V182.882L72.1146 183.054L72.6311 182.193L73.664 182.365L74.5247 181.16L75.5577 181.504L76.5906 180.127L77.6235 180.299L78.6565 179.094L79.6894 179.266L80.2059 178.406L82.2717 178.233L82.7882 177.545L83.8211 177.717L84.3376 176.856L85.3705 177.028L85.8869 176.167L86.9199 176.34L87.7806 175.651L88.9857 175.823V175.307L90.0187 175.479V174.962L91.0516 175.135L98.4543 173.241L99.315 173.757Z" fill="#EDF2F8"/>
<path d="M266.133 91.9844L264.583 93.5338L263.55 93.8781V94.7388L262.517 95.5996L261.484 95.4274L260.968 96.2882L259.935 96.1161V96.4604L258.902 96.2882V96.8047L257.353 96.4604V96.9768L254.254 97.3212V97.8376L253.221 97.6655L253.393 98.1819L250.122 98.5262L249.606 99.387H247.54L247.196 100.248L246.163 100.076L245.646 100.936L244.613 100.764L244.097 101.625L243.064 101.453L242.547 102.314L241.514 102.141L240.998 103.002L238.416 103.691H238.588V104.724L240.654 106.101V107.134L244.785 110.233L244.958 111.266L245.991 111.438V112.299L247.023 112.643V113.504L248.056 113.848V114.709L249.089 114.881L251.844 119.185L252.877 119.357L253.91 121.939L254.943 122.284V123.144L255.975 123.489L258.73 129.17L259.591 129.342L261.829 133.646L263.895 135.884L267.166 137.433V138.466L269.231 139.327V140.36L271.986 141.737V142.598L273.019 142.77V143.803L274.052 144.147V145.008L276.634 147.935L277.839 148.107V149.14L278.872 149.312V150.173L279.905 150.345L283.52 156.37L284.725 156.542V157.575L285.758 157.747V159.125L286.791 159.469L287.824 162.568L288.34 162.74L289.373 165.322L290.579 165.494L291.611 168.077L292.644 168.249L295.743 170.831V171.692L296.776 171.864V172.897L300.563 174.963V175.996L301.596 176.168L303.146 178.922L304.179 179.095V179.955L305.212 180.127L306.933 182.882L307.966 183.054V184.087L308.999 184.259L310.548 187.874L311.754 188.046V189.079L312.614 189.252L314.336 193.039L315.369 193.211V194.588L316.402 194.761L316.918 196.31L317.435 196.482L317.951 198.892L319.156 199.581V200.614L320.189 201.13V202.68L321.222 203.368L321.738 206.295L322.771 206.983V209.049H323.46L323.976 211.632L325.009 211.804L325.526 216.796H326.214V217.829H326.731V220.756L327.764 221.444L328.28 225.92L329.313 226.437L330.518 230.569L331.551 230.741L332.584 234.872L333.617 235.045L334.134 238.488L335.167 238.66L335.855 243.652L336.888 243.825L338.61 261.04L338.093 260.868L338.265 268.615L337.749 268.443V271.886L337.232 271.713V274.64L336.199 274.984L335.683 278.772L334.65 278.6L332.24 286.347L331.035 286.174L326.903 293.061L325.87 293.233H325.354V294.61L324.493 294.438V294.954L322.255 295.987L320.878 297.192V298.57L317.09 299.775V300.635H317.951L318.468 299.775L319.5 300.119L320.017 299.258L321.05 299.43L321.566 298.57L322.427 298.742V298.225L324.149 298.053L324.493 297.192L325.698 297.365L327.247 295.815L328.28 295.987L330.346 294.094L331.207 294.266L334.822 291.167L335.855 291.339V290.651L337.404 290.134L337.921 288.757L341.536 286.691V285.658L343.946 284.281V283.248L344.979 282.904V282.559L346.184 282.215L346.012 281.354L347.045 281.01V279.977L348.078 279.805V278.772L349.627 278.255L351.177 275.845L353.071 274.812L353.759 273.952L354.792 274.124L355.309 272.402L356.169 272.746L356.686 271.886L357.719 272.058L358.235 271.197L359.268 271.369L359.785 270.508L361.334 270.336L363.4 268.443L364.433 268.615L366.499 266.549L367.531 266.721V266.205L368.564 266.032V264.999L369.425 265.172L371.491 263.278H372.008V262.417L374.073 261.729V260.868L376.656 259.318V258.458L378.722 257.425V256.564H380.271V255.703L384.403 253.121L386.296 252.949L386.985 251.399L388.879 251.227V250.883L390.6 250.539L390.944 249.85L391.977 250.022V249.333H393.527L394.043 248.473L395.076 248.645L396.109 247.44L397.142 247.612L397.658 246.751H398.175L398.691 245.89L399.724 246.235V245.718L401.79 245.202V244.169L411.431 237.971V236.938L412.98 236.25V235.217L414.53 234.7L416.251 232.979L414.874 230.913L414.357 230.741L413.841 228.675L412.292 227.47L411.603 224.888H411.087L409.021 221.617L402.135 216.968V215.936L400.585 215.075L400.069 214.214L399.036 214.042L397.486 211.632L396.281 211.459L393.699 208.533L392.666 206.983L391.633 206.811L390.084 204.057L388.879 203.885L386.296 200.097L385.78 199.925V198.892L382.509 195.966V194.933L381.476 194.244V193.383L380.443 192.695V191.662L379.41 190.457L378.377 190.284L374.59 182.365L373.557 182.193L369.253 172.38L368.22 171.52V170.659L367.704 170.487L367.015 167.56L366.671 167.388L366.499 166.011H365.982V164.461L365.466 164.289V162.912H364.949V160.846H364.433L363.744 157.747H363.228V156.714H362.883V154.649H362.195V151.722L361.678 151.55V149.14H361.162V145.18H360.645L359.957 133.474L359.44 133.301V131.924L358.407 131.236L357.719 127.792L356.686 127.62L356.169 125.554L355.653 125.382V123.489H354.964V121.939L354.103 121.251L353.931 118.84L352.898 118.668L352.382 113.848L351.865 113.676V112.815L351.349 112.643L351.177 109.2L350.316 108.511L350.144 103.174L349.111 102.658L348.767 87.6805L349.972 87.3362V81.9994L351.005 82.3437L351.349 77.5234H351.865V75.6297L352.382 75.8019V73.3917L353.415 73.0474V71.1537L354.448 70.8094L354.964 67.5385L355.997 67.7106L357.547 62.7181L358.579 62.8903L358.407 61.513L359.612 61.6852L363.744 55.3155L364.777 55.4876L366.326 52.3889L367.359 52.561V51.5281L368.392 51.7003L370.975 48.2572L371.835 48.6015V47.5686L373.557 47.9128L375.106 46.7078L374.934 45.847L376.139 46.0192V44.9862L377.172 45.1584L378.205 43.9533L379.238 44.1255L379.754 43.2647L381.304 43.0925V42.0596L383.886 40.6824L388.534 40.1659V39.133L393.871 38.6165L393.699 37.7558L398.519 37.0671L400.069 37.4114V36.895L401.102 37.0671V36.5507L403.167 37.0671L403.684 36.2064L409.537 36.7228L409.881 35.8621L414.702 36.7228L415.218 35.8621L423.482 37.4114L424.687 37.0671L438.803 40.3381V41.1988L450.338 44.8141V45.847L452.92 46.1913V47.2242L459.29 49.8065V50.6673L464.454 53.2496V54.1104L466.52 54.9712L466.692 55.6598L468.242 55.832L469.275 57.3813L470.824 57.7257V58.2421L472.029 58.4143V58.9307L476.161 59.6193V60.1358L479.776 60.8244V61.3409L482.358 61.8574V62.3738L485.457 62.8903V63.4068L487.695 63.751L488.212 64.784L490.278 65.1283V65.6447L491.827 65.9891V66.5055L493.376 66.6777V67.1941L495.442 67.5385V68.2271L502.845 71.498V72.3588L513.346 78.212V79.0728L515.24 79.9336L514.551 79.245V78.212L513.518 77.5234V76.6626L512.485 75.4575V74.4246L511.453 73.9081L510.936 71.8423L509.903 71.1537V70.2929L509.387 70.1208L508.87 68.5714L507.665 67.8828V67.022L505.599 65.1283V64.2675L503.533 62.3738V61.513L499.918 57.8978L499.402 56.3484L498.369 56.1763V55.3155L497.336 55.1433L489.933 48.085L488.9 46.3635L487.867 46.1913L487.351 45.1584L486.318 44.9862L485.285 43.4369L483.219 42.5761L482.703 41.5431L481.153 40.6824V40.1659L478.055 38.7887V38.2722L477.022 38.1V37.5836L473.923 36.0342V35.5177L471.341 34.657V34.1405L470.308 33.9683V33.4519L468.758 33.1076V32.7633L467.725 32.419V32.0747L466.176 31.7304V31.2139L465.143 31.0417V30.6974L461.528 29.4923V28.9759L459.978 28.6316V28.2873L457.913 27.9429V27.4265L455.33 26.91V26.3935L452.748 25.8771V25.5328L444.484 23.467V23.1226L421.76 19.6795V20.196L419.178 19.6795V20.196L416.596 19.6795V20.196L415.046 19.8517V20.3682L412.98 20.0239V20.5403L410.914 20.196V20.5403L409.881 20.3682V20.8846L406.783 20.7125V21.2289L405.75 21.0568V21.5732L404.2 21.2289V21.7454H402.307V22.434L400.585 21.9176V22.434L397.658 22.9505V23.2948L396.453 23.1226V23.6391H394.56L394.043 24.672H391.977L391.461 25.5328L390.428 25.3606V25.8771L388.879 26.0493L388.362 26.91L387.329 26.5657L386.296 27.9429L385.263 27.5987L384.23 28.9759L383.198 28.8037L381.648 30.3531L380.615 30.181L325.354 61.1687L323.288 61.3409L323.46 61.6852L321.911 62.0295L321.394 62.7181L320.361 62.546V63.0624L318.295 64.0954L301.424 74.2525V75.2854L300.391 75.4575L298.842 77.1791L297.809 76.8348L296.776 77.6956L266.133 91.9844Z" fill="#EDF2F8"/>
<path d="M-378.07 37.0669L-377.037 34.8289L-376.52 35.0011L-376.004 33.2795H-375.487V32.4187H-375.143V31.0415H-374.626L-373.594 28.4592H-373.077V27.5984L-372.561 27.7706V26.7377L-372.044 26.9098V25.8769L-371.528 26.0491V25.0161L-371.011 25.1883V24.1553L-369.978 23.4667V22.4338L-368.945 22.2616L-368.429 20.368L-367.396 20.0236L-366.879 18.3021L-365.847 17.9578L-366.019 17.097H-365.502V16.2363L-364.469 15.8919V15.0312L-363.436 14.6869V13.6539L-362.404 13.4818V12.4488L-361.371 12.1045V11.2438L-359.821 10.5552V9.69438L-358.272 9.00578V7.97283L-355.689 6.5956V5.56268L-354.657 5.39052V4.87405L-353.796 4.52976V3.66897L-341.056 -11.9971H-340.54L-339.163 -13.5465H-338.646V-14.9237H-338.13V-15.7845H-337.613V-16.9895H-337.269L-336.236 -19.744L-335.72 -19.5718V-20.4326H-335.203V-21.2934H-334.687V-22.1542H-334.17V-23.0149H-333.654V-23.8757H-333.137V-24.7365H-332.621V-25.5972L-331.588 -26.458V-27.3188L-330.555 -27.6631L-330.038 -29.5568L-329.178 -29.7289L-328.661 -31.4505L-327.628 -31.7948V-32.8277L-327.112 -32.6556V-33.5164L-325.562 -34.3771L-325.218 -36.0987L-323.497 -36.7873V-37.6481L-322.119 -38.3367L-319.537 -41.2633V-42.1241L-318.504 -41.9519L-317.471 -43.6735H-316.955V-44.5342H-316.438L-314.889 -46.0836L-313.856 -46.2558V-47.2887H-313.34L-311.79 -48.8381L-310.757 -48.6659L-297.329 -63.2991V-64.1598L-296.813 -63.9877L-296.468 -65.8814L-295.952 -65.7092V-66.7422L-295.263 -66.57V-67.6029L-294.747 -67.4308L-294.919 -68.4637L-294.403 -68.2915V-69.3245L-293.886 -69.1523V-70.1852L-293.37 -70.0131V-71.046L-292.853 -70.8739V-71.9068L-292.337 -71.7346V-72.7675L-291.304 -73.4562V-74.4891L-290.271 -74.6612L-289.927 -76.5549L-288.205 -77.2435L-287.861 -78.9651L-286.828 -79.3094V-80.1702H-286.311V-81.031L-285.278 -81.3752L-284.762 -82.7525L-283.213 -83.269V-84.3019L-281.663 -84.9905L-281.147 -86.7121L-278.564 -88.2614V-89.1222L-276.154 -90.4994V-91.5324L-268.407 -100.14L-267.891 -99.9679V-100.829H-267.546L-266.858 -104.1L-266.514 -103.927V-104.96L-265.997 -104.788L-265.481 -107.543H-264.964V-108.404H-264.448V-109.781L-263.931 -109.609L-263.415 -111.502H-262.898V-112.879L-262.382 -112.707L-261.349 -115.462L-261.005 -115.29V-116.15H-260.488V-117.183L-259.972 -117.011V-117.872H-259.455V-118.733H-258.939V-119.594H-258.422V-120.454H-257.906V-121.315L-256.873 -122.176L-257.045 -123.037L-255.84 -123.381L-254.979 -125.963L-253.774 -126.308V-127.168L-252.397 -127.857L-251.88 -129.751L-250.847 -130.095V-130.956L-249.298 -131.644V-132.505H-248.782L-248.265 -133.882L-247.232 -134.054V-135.087L-245.166 -136.12V-136.981L-242.584 -138.53V-139.391L-239.657 -141.285V-142.146L-233.632 -151.442H-232.943L-233.116 -152.303L-232.599 -152.131L-231.566 -156.262H-231.05V-157.295L-230.533 -157.123V-158.5H-230.017L-229.5 -160.222L-228.984 -160.05V-161.599L-228.467 -161.427L-227.607 -164.009H-226.918V-165.042L-226.574 -164.87V-165.903L-226.057 -165.731V-166.592H-225.541V-167.625L-225.024 -167.452V-168.313H-224.508V-169.174H-223.991V-170.207L-222.958 -170.896V-171.928L-221.926 -172.101L-221.581 -173.822L-220.548 -174.166L-220.032 -176.06L-218.999 -176.232V-177.265L-217.966 -177.437V-178.47L-216.933 -178.642V-179.675L-215.9 -180.02V-181.053L-214.867 -181.225L-215.212 -182.602L-213.662 -183.291V-184.324L-211.596 -185.356L-211.08 -186.734L-206.604 -192.931V-195.341L-206.087 -195.169V-196.719L-205.571 -196.547V-198.096L-205.054 -197.924V-199.817H-204.538L-204.71 -201.195L-203.333 -200.85V-202.4L-202.816 -202.228V-203.605H-202.128L-202.3 -204.466H-201.784L-201.267 -207.22L-200.751 -207.048V-208.081L-200.234 -207.909V-209.286L-199.718 -209.114L-199.201 -211.007H-198.685V-211.868L-198.168 -211.696L-198.34 -213.245L-197.652 -213.073L-196.791 -215.828L-196.275 -215.656V-216.689L-195.758 -216.516V-217.549L-195.242 -217.377L-194.209 -220.132L-193.176 -220.304V-221.853L-192.143 -222.025L-191.626 -223.919L-190.766 -224.091V-225.124L-189.733 -225.296V-226.329L-188.7 -226.674V-227.534L-187.667 -227.879V-228.739L-186.634 -229.084V-230.117L-186.117 -229.944L-185.601 -231.322L-184.568 -231.494V-232.527L-183.019 -233.215V-234.076L-180.436 -235.626V-236.486L-172.862 -247.504L-173.034 -248.881L-172.345 -248.709V-250.259L-171.829 -250.087V-251.98H-171.484V-252.841H-170.968V-254.218H-170.451V-254.907H-169.935V-256.456L-169.418 -256.284V-257.145H-168.902V-258.522H-168.386L-167.869 -260.244H-167.525V-261.104H-167.008L-166.836 -262.482L-165.975 -262.654V-264.203L-165.287 -264.031V-265.064L-164.942 -264.892V-265.925L-163.91 -266.269V-267.13L-162.877 -267.991V-268.851L-162.36 -268.679V-269.712L-161.844 -269.54V-270.573L-160.811 -270.745L-160.294 -272.639L-159.261 -272.983V-273.844L-158.228 -274.188V-275.049L-157.196 -275.393L-157.368 -276.426L-156.335 -276.598V-277.631L-155.13 -277.803V-278.836L-153.752 -279.525V-280.386L-152.203 -281.074V-281.935L-145.661 -291.231H-145.145V-292.436H-144.628V-293.814H-144.112V-295.191L-143.595 -295.019V-297.085L-143.079 -296.912V-297.945L-142.735 -297.773L-141.702 -301.905L-141.013 -301.733L-141.185 -302.766L-140.497 -302.594V-304.143L-140.152 -303.971L-139.636 -305.865L-139.119 -305.692L-138.603 -307.93H-138.086L-137.053 -310.513H-136.537V-311.373H-136.021V-312.234H-135.504V-313.095L-134.988 -312.923L-135.16 -313.956L-134.127 -314.644V-315.677L-133.094 -316.022L-132.577 -317.743L-131.545 -318.087L-131.028 -319.809L-129.995 -320.153L-129.479 -321.875L-127.929 -322.563V-323.596L-126.896 -323.769V-324.801L-125.863 -325.146L-125.347 -326.351L-123.97 -327.039V-328.072L-122.937 -328.245V-328.761L-121.904 -329.105V-329.966L-119.838 -330.999V-332.032L-106.238 -350.28V-351.313L-105.721 -351.141V-352.174L-104.688 -352.518V-353.379L-103.656 -354.068V-355.101L-103.139 -354.928V-355.961L-102.106 -356.306L-101.59 -358.027H-101.073L-100.729 -359.232L-99.5238 -359.577L-99.1795 -361.298L-97.6302 -361.987V-363.02L-96.5972 -363.192V-364.225L-95.0478 -364.913V-365.774L-92.982 -366.807V-367.84L-90.9161 -368.873V-369.734L-86.268 -372.66V-373.693L-85.4071 -373.865L-84.3743 -375.243L-83.3413 -375.071L-79.2096 -378.514L-78.1767 -378.341L-76.6273 -379.891L-75.5944 -379.719L-73.5285 -381.785L-72.6678 -381.612L-71.6348 -382.817L-70.4297 -382.645L-69.9133 -383.506L-68.536 -383.678V-384.195L-67.5031 -383.85L-66.9866 -384.711L-65.9538 -384.539L-65.4372 -385.4L-63.8879 -385.572V-386.088L-60.7891 -386.433L-60.2726 -387.294L-59.2397 -387.121L-58.2068 -387.982L-57.1738 -387.638V-388.326L-56.141 -387.982V-388.499L-55.108 -388.326L-54.5916 -389.187L-53.2143 -388.843V-389.359L-50.9763 -389.532V-389.876L-49.4269 -389.532V-390.048L-47.3611 -390.22L-47.5332 -390.737L-45.8117 -390.392V-390.909L-44.7787 -390.737V-391.081L-43.2294 -390.909V-391.253L-42.3686 -391.081V-391.597L-33.5887 -393.319L-32.5558 -393.147L-32.0393 -394.008H-29.9735L-29.457 -394.868L-27.3912 -395.04V-395.557L-26.3582 -395.385V-395.729L-23.2594 -396.073V-396.59L-21.7101 -396.418V-396.934H-19.8164V-397.451L-18.0948 -397.106V-397.623L-17.234 -397.451V-397.795H-14.1353L-13.9631 -398.139L-12.5859 -397.967V-398.484L-11.0365 -398.139V-398.656L-9.48709 -398.311V-398.828L-7.42126 -398.484V-399L-5.35542 -398.484V-399L-2.77308 -398.484V-399L38.0275 -389.532V-389.015L39.5769 -388.671V-388.326L41.1263 -387.982V-387.466L42.6756 -387.294V-386.777L44.225 -386.433V-386.088L45.258 -385.916V-385.4L46.8074 -385.055V-384.539L48.8732 -383.678V-383.334L50.4226 -382.99V-382.473L53.5214 -380.924V-380.579L55.5872 -379.719L56.2759 -378.686L58.1696 -377.653L58.686 -376.62L59.8911 -376.448L60.4075 -375.415L61.4405 -375.243L61.9569 -374.21L62.9899 -374.038L63.5063 -373.005L64.5393 -372.66L65.0557 -371.627L65.9165 -371.455L67.638 -369.389L68.6709 -369.217L70.7368 -366.291H71.7697V-365.774L72.8027 -365.086V-364.053L81.2382 -354.412L82.7876 -353.207V-352.346L84.337 -351.141V-350.108L85.3699 -349.592L85.8864 -348.042L86.4029 -347.87V-346.837L87.4357 -346.149L87.9523 -344.771L88.4687 -344.599V-343.738L89.5016 -342.533V-341.5H90.0181V-340.468H90.5345V-339.435H91.2232V-338.402H91.5675V-337.369L92.0839 -337.197L93.289 -334.27L93.8055 -334.098V-332.721L94.3219 -332.548V-331.688H94.8384V-330.138H95.3549V-329.105H95.8713V-327.556H96.3878V-326.007H96.9043L97.4207 -322.563L97.9372 -322.391L103.446 -306.209H103.963L104.479 -304.143H104.823L105.512 -301.044H106.028V-300.011H106.545L108.094 -293.642L108.611 -293.469V-292.092L109.127 -291.92L109.299 -290.543H109.816V-288.477H110.16L111.365 -281.074V-241.651L110.332 -235.281H109.988V-233.904L109.472 -234.076V-232.527L104.995 -207.737L104.479 -207.909L104.651 -202.228H104.135V-198.096H103.618V-195.169L103.102 -195.341V-192.587H102.585L102.758 -190.177L102.069 -190.349L102.241 -188.455H101.552L96.2157 -171.068H95.6992L95.1827 -169.346H94.6663V-167.969L94.1498 -168.141L93.6333 -166.247L93.1169 -166.419V-165.387L92.6004 -165.559V-164.009L91.5675 -163.837V-162.804L90.7067 -162.116L85.1978 -149.893L84.6813 -148.515L84.1648 -149.893L82.6154 -151.098L82.099 -153.164L80.5496 -154.369L80.3774 -155.229L79.3445 -155.918V-156.951L77.7951 -158.156L76.7622 -159.878H76.2458V-160.911L74.1799 -162.804L71.4255 -166.592L70.3925 -166.764L70.0482 -168.313H69.3596V-169.863H68.8431V-171.412H68.3267V-172.789L67.8102 -172.961V-174.339L67.2937 -174.511V-175.888L66.7773 -176.06L66.6051 -177.437L66.2608 -177.61L65.0557 -180.708H64.5393V-181.741H64.0228V-182.774L63.5063 -182.946V-183.807L62.9899 -183.979V-184.84L62.4734 -185.012L62.3012 -186.045L61.4405 -187.078V-188.111L60.4075 -188.8L59.2024 -191.726L57.6531 -192.931V-193.964L55.5872 -195.858L55.0708 -197.407L54.0378 -198.096V-198.957L52.4884 -200.334V-201.195L50.7669 -202.572V-203.433L47.1516 -207.048L46.6352 -208.597L45.6023 -208.769V-209.63L43.3643 -211.007L40.7819 -214.451L39.7491 -214.623V-215.139L37.1667 -217.033V-217.894L35.6173 -218.754V-219.271L34.0679 -219.96L33.3793 -220.992L30.2805 -222.542L29.7641 -223.747L28.2147 -224.436V-224.78L27.1817 -224.952L26.1488 -226.157L25.1159 -226.329V-226.846L24.083 -227.018L23.3944 -228.223H22.3614V-228.739L21.3285 -228.912L20.2956 -230.117L19.2627 -230.289L18.7462 -231.322L14.098 -233.732V-234.248L13.0651 -234.42V-234.765L9.79418 -235.97L-2.25664 -241.479L-7.9377 -243.028V-243.545L-24.6367 -247.16L-55.7966 -246.643L-57.346 -246.988V-246.471L-60.4448 -246.127V-245.61L-62.5107 -245.438L-63.0271 -244.578L-64.06 -244.922V-244.405L-65.0929 -244.578L-65.2651 -244.061L-66.1259 -244.233L-67.331 -243.545L-68.3639 -243.717L-68.7082 -242.856L-71.807 -242.512L-72.8399 -241.134H-74.9057L-75.4222 -240.274L-76.9716 -240.102V-239.585L-78.521 -239.413V-238.38L-81.2755 -237.519L-81.1033 -237.003L-82.1362 -237.175L-84.7186 -234.765L-86.7844 -234.248V-233.215L-88.5059 -233.043L-88.3338 -232.182L-89.5389 -231.838L-89.3667 -231.322L-90.3996 -231.494L-92.982 -229.256V-228.223H-93.4984L-94.5314 -226.501L-95.5643 -226.846L-96.0808 -225.468H-96.5972L-97.1136 -224.091L-98.1466 -223.747L-98.663 -222.025L-100.212 -221.337L-101.245 -218.754L-102.278 -218.41V-217.377L-103.311 -216.689V-215.656L-103.828 -215.828V-214.795L-104.344 -214.967V-213.934L-104.861 -214.106V-213.073H-105.377V-212.213L-105.721 -212.385L-106.754 -209.63H-107.271L-112.435 -194.825L-113.296 -185.529H-113.813L-114.157 -174.683L-113.64 -174.511L-112.952 -164.87L-112.435 -164.698L-111.919 -158.845H-111.402V-156.779H-110.886V-154.885L-110.37 -154.713V-152.819L-109.853 -152.647L-109.681 -151.27L-109.337 -151.098V-149.721L-108.648 -149.548V-148.171H-108.132V-146.622H-107.615V-145.072H-107.099V-143.523H-106.582V-142.146L-106.066 -141.974L-104.861 -138.875L-104.516 -138.703L-104.344 -137.842L-103.828 -137.67V-136.809L-103.311 -136.637V-135.776L-102.795 -135.604V-134.743L-102.278 -134.571V-133.538L-101.245 -132.505V-131.472L-100.212 -130.784L-99.1795 -127.685L-97.6302 -126.48L-97.1136 -124.414L-95.9086 -123.725L-95.3921 -122.176H-94.8757L-94.3592 -120.626L-93.3263 -120.454V-119.421L-91.6047 -118.216V-117.356L-90.5718 -116.667V-115.634L-89.0224 -114.429V-113.912L-87.9895 -113.74L-86.9565 -112.535L-86.4401 -110.986L-84.3743 -109.264V-107.715H-83.8578V-106.165H-83.3413L-83.1692 -104.616H-82.6527V-103.067H-82.1362V-102.206L-81.6198 -102.034L-81.1033 -98.935H-80.5868L-79.3818 -95.8362L-79.0375 -95.6641V-94.8033L-78.3488 -94.6311V-93.7704L-77.8324 -93.5982V-92.7374L-77.3159 -92.5653V-91.7045L-76.283 -90.4994V-89.4665L-75.25 -88.7779L-74.2172 -85.6791L-72.6678 -84.474L-71.9791 -82.4082L-70.9462 -81.7196L-70.4297 -80.1702L-68.3639 -78.4486V-77.4157L-65.7816 -75.0056V-74.1448L-61.9941 -70.5295L-61.4777 -69.1523L-60.4448 -68.808L-58.8954 -65.1928L-57.6903 -60.7167L-57.1738 -60.5446V-59.5117H-56.8295V-58.1344L-56.141 -57.9623L-55.108 -54.8635H-54.5916V-53.8306L-54.0751 -53.6584V-52.7976H-53.5586V-51.7647L-53.0422 -51.5926V-50.2153L-51.8371 -49.5267L-51.3206 -47.4609L-50.2877 -46.7723L-49.2548 -43.6735L-48.2218 -43.157V-42.1241L-47.1889 -41.4354L-46.5003 -39.3696L-45.4673 -38.8531V-37.8202L-43.4015 -35.9265V-35.0658L-41.3357 -33.172V-32.3113L-39.7863 -30.9341L-39.0977 -29.9011L-38.2369 -29.7289V-29.2125L-37.0318 -28.5239V-27.6631L-35.4824 -26.8023L-34.9659 -25.253H-33.933L-33.4165 -24.0479H-32.9001V-23.0149L-31.8671 -22.3263L-31.3507 -19.3997L-30.8343 -19.2276V-18.1946H-30.3178V-16.8174L-29.6292 -16.6452L-28.5962 -13.5465H-28.0798V-12.5135H-27.5633V-11.4806H-27.0468V-10.4477L-26.5304 -10.2755V-9.41476L-26.014 -9.2426V-8.20966L-24.981 -7.17674L-24.8088 -6.14382L-23.7759 -5.45519L-22.743 -2.35641L-21.1936 -1.15133L-20.6771 0.398062H-20.1607V1.43098L-18.6113 2.63605V3.66897L-16.3733 5.56268V6.42344L-14.3075 8.14499V9.1779L-10.6922 12.7932L-10.1757 14.1704L-9.14278 14.5147V15.3755L-7.42126 16.2363V16.7527L-4.83892 18.9907V20.0236L-3.80603 20.7122V21.7452H-3.28953V22.7781L-2.77308 22.9503V24.3275H-2.25664L-0.70725 28.287H-0.879375L-1.39588 31.0415L-1.74013 30.8694V31.9023L-2.25664 31.7301V33.2795L-2.77308 33.1074V34.6568L-3.28953 34.4846V35.3454H-3.80603V36.7226L-4.32247 36.5504L-4.83892 38.4442L-5.35542 38.272V39.6492H-5.87187L-6.73262 42.4037L-7.42126 42.2315L-7.24913 43.2645L-7.9377 43.0923V44.4696L-8.79852 44.8139V45.6746H-9.31497V47.0519L-10.3479 47.3962V48.2569H-10.8644V49.1177L-11.8972 49.9785V50.8393L-12.9302 51.1836L-13.9631 53.7659L-14.8239 54.1102V55.1431L-16.3733 55.6596L-16.8897 57.5533L-18.4391 58.2419V59.1027L-19.4721 59.447L-19.9885 60.8242L-20.505 60.6521V61.685L-22.0543 62.3736V63.2344L-24.4646 65.6445L-30.3178 73.5637L-31.1786 74.7687H-31.695V76.146L-32.2115 75.9738V77.8675H-32.728V79.2447H-33.2444L-33.933 80.4498L-34.4495 80.2777V81.8271L-34.9659 81.6549V83.0321H-35.4824V83.8929H-35.9989V85.2701L-36.5153 85.098V86.1309H-37.0318L-38.2369 88.7132L-38.7533 88.5411L-39.442 90.4348L-39.7863 90.2626V91.2955L-40.3027 91.1234V92.5006H-40.8192L-41.8521 92.8449L-41.5078 93.0171V93.8778L-42.0242 93.7057L-43.0572 96.4602L-44.0901 96.6323L-45.123 99.3868L-46.156 99.7311L-47.0167 102.313L-48.2218 102.658V103.519L-49.0826 103.863V104.724L-50.2877 105.068L-50.1155 105.929H-50.632L-51.1485 107.306L-52.1814 107.478V108.511L-53.7307 109.2V110.06L-54.7637 110.405L-54.5916 111.438L-55.6245 111.61L-54.9358 112.298L-55.9688 112.471V113.503L-58.0346 116.774L-57.8625 117.635L-61.4777 119.873V120.906L-63.5435 121.939L-74.2172 135.539H-74.7336L-75.25 137.261H-75.7665V138.122H-76.283V139.499L-76.7994 139.327L-77.6603 142.081L-78.3488 141.909V142.77H-78.6931V143.803H-79.2096V144.663L-79.7261 144.491V145.524L-80.759 146.213V147.246L-81.7919 147.418V148.967L-82.3084 148.795L-82.8249 150.172L-83.8578 150.344L-84.3743 152.238L-85.4071 152.41V153.443L-85.9237 153.271L-85.7515 154.304L-86.7844 154.648V155.509L-88.3338 156.198L-88.8502 158.091L-90.3996 158.78V159.641L-91.949 160.329V161.19L-92.982 161.535V162.395L-95.0478 163.6V164.461L-97.6302 166.011V166.871L-105.377 176.34L-105.894 176.168L-105.721 178.061H-106.41V179.094L-106.754 178.922L-108.648 182.882L-109.164 182.71L-109.681 184.947H-110.197V185.808H-110.714L-110.542 187.185H-111.23L-112.263 189.768L-112.78 189.596V190.629L-113.124 190.456V191.489L-113.64 191.317V192.867L-114.846 193.039V194.416L-115.706 194.76V195.793L-116.223 195.621V196.654L-116.739 196.482V197.343H-117.256V198.376L-118.289 199.064V200.097L-119.149 200.269L-119.838 202.163L-120.871 202.335L-121.387 204.229L-122.765 204.917L-123.281 206.639L-124.831 207.328L-125.347 208.705L-126.38 209.049L-126.896 210.771L-128.446 211.459V212.32L-131.028 213.869V214.73L-133.438 216.107V217.14L-142.218 226.953L-142.562 228.158H-143.079V230.052H-143.595L-144.112 231.773L-144.628 231.601L-145.145 234.356H-145.661L-146.178 236.594L-146.522 236.422L-147.211 238.315L-147.555 238.143V239.176L-148.071 239.004V240.381H-148.76L-149.621 243.136L-150.137 242.964V243.996L-150.654 243.824L-151.687 246.407L-152.72 246.751V247.784L-153.752 248.472V249.333H-154.269V250.194H-154.613V251.055L-155.646 251.399L-156.163 253.293L-157.196 253.465V254.326L-158.228 254.67V255.703L-159.261 256.047V256.908L-160.294 257.252V258.113L-161.327 258.457V259.318L-162.877 260.007L-162.704 261.04L-163.737 261.384V262.245L-165.803 263.278V264.311L-168.386 265.688V266.549L-170.451 267.582V268.098L-171.484 268.442L-180.264 279.632L-180.781 280.321L-181.814 283.075L-182.33 282.903L-182.847 284.797H-183.363V286.174L-183.879 286.002V287.035L-184.224 286.863V288.24H-184.912L-186.634 290.65H-187.15V291.683L-187.667 291.511V292.888L-188.7 293.233V294.093L-189.733 294.954V295.815H-190.249V296.676H-190.766V297.536L-191.799 298.397V299.258L-192.831 299.602L-193.348 301.324L-194.209 301.668V302.701L-195.242 302.873V303.906L-196.275 304.078L-196.791 305.972L-198.34 306.488L-198.857 308.382L-200.406 309.071L-202.816 311.997V312.858L-204.022 312.686L-204.882 314.408L-205.399 314.235V315.268L-206.432 315.44V315.957L-207.465 316.301V317.334L-213.146 320.949V321.81L-214.179 322.154L-216.761 324.565L-217.622 324.393L-218.138 325.253L-234.493 340.231L-235.009 340.059V341.091H-235.526L-235.354 341.952L-236.559 342.641V343.674L-237.592 343.846L-238.108 345.74L-238.969 346.084L-239.485 347.806L-241.035 348.494L-241.551 350.216L-243.101 350.904L-243.617 352.798L-245.166 353.314V354.347L-246.716 355.036L-246.544 356.069L-248.609 357.102L-249.126 358.479L-249.642 358.307V359.168L-250.675 358.995L-261.005 368.464L-261.865 368.292L-262.382 369.153L-266.514 371.219V372.251L-267.03 372.079L-269.096 373.112V373.629L-270.129 373.456V374.317L-272.195 375.006V375.522L-273.228 375.178L-273.744 376.039H-274.26L-274.777 376.9L-284.934 386.885L-285.967 387.057L-286.483 388.95L-287.344 389.123V390.155L-288.549 390.5V391.361L-289.41 391.705V392.566L-290.443 392.91V393.943L-291.476 394.115V395.148L-293.025 395.837V396.697L-294.058 397.042V397.902L-295.091 398.247V398.763L-296.124 398.935V399.968L-298.018 401.001V401.862L-301.633 404.1V405.133L-305.248 407.371L-305.765 408.576L-306.798 408.404L-307.314 409.781L-308.863 409.953L-313.34 412.88L-326.595 426.136L-328.661 428.546V429.407L-329.694 429.751L-330.211 431.645L-331.244 431.817V432.678L-332.276 433.022L-333.137 434.399V435.26L-334.342 435.604H-335.031L-336.064 435.949V436.809L-337.097 437.154V438.014L-338.646 438.703L-341.228 441.63V442.49L-342.261 442.318L-342.778 443.695L-344.155 444.384V445.245L-346.737 446.794L-356.55 453.853V454.885L-357.411 455.574L-358.444 455.402L-359.477 456.607L-364.641 459.017V460.05L-366.191 460.222L-369.29 461.6L-370.323 462.805L-371.356 462.46L-372.905 463.321L-373.421 464.01L-373.594 464.87L-374.11 465.731L-377.725 466.42V467.453H-379.791V467.969L-380.652 467.797L-381.168 468.658L-382.201 468.486V468.83L-383.234 468.658L-384.267 469.002L-415.427 489.316L-416.46 489.144L-418.009 490.694L-419.042 490.521V491.038L-420.592 491.727L-421.108 492.587L-422.141 492.415L-422.658 493.104L-423.69 492.932L-424.723 494.309L-425.756 493.964L-426.789 495.342H-428.855L-429.716 496.547L-430.921 496.375L-431.265 497.235H-433.331L-433.848 498.096L-435.913 498.268L-436.43 499.129L-437.463 498.957L-438.496 499.818L-439.529 499.473V499.99L-440.562 499.818L-441.078 500.679L-443.144 500.851V501.195L-444.177 501.023V501.539L-447.276 501.884V502.4L-448.825 502.056V502.572L-449.858 502.4V502.744L-452.785 503.261V503.777L-455.883 503.605V504.122L-456.916 503.949V504.466H-461.564V504.81L-462.597 504.638V505.155L-464.663 504.81V505.327L-466.213 504.982V505.499L-467.762 505.155V505.671L-469.311 505.499V505.843L-471.377 505.499L-480.157 506.36L-485.322 505.843V506.36L-516.137 501.884V501.367L-527.155 498.957L-547.814 491.382V490.866L-554.528 488.283V487.767L-555.561 487.595V487.078L-557.11 486.906V486.218L-560.209 485.185V484.668L-561.242 484.496V484.152L-562.791 483.807V483.291L-564.857 482.43V482.086L-565.89 481.742V481.397L-567.439 481.053V480.536L-569.505 479.676V479.159H-570.538V478.643L-572.087 478.298L-572.604 477.266L-573.637 477.093V476.577L-574.67 476.405V475.888L-575.703 475.716V475.2L-576.736 475.028L-577.769 473.995L-578.801 473.65L-579.318 472.617L-582.589 471.24L-582.933 470.035L-585.171 469.346L-586.204 467.625L-587.237 467.453L-587.754 466.42L-588.614 466.248L-588.786 465.731L-590.164 465.043L-590.852 464.01L-591.885 463.665L-592.918 462.116L-593.951 461.944L-594.468 460.911L-595.5 460.739L-596.533 459.017H-597.566L-599.632 456.091L-600.665 455.918L-603.247 452.647L-604.28 452.475L-611.166 444.556L-615.298 440.424V439.392L-618.913 435.949V434.916L-621.151 433.194V432.333L-623.045 430.44V429.407L-624.25 428.89V427.857L-625.8 426.652V425.619L-626.833 424.931L-627.349 423.381H-627.865V422.348L-628.898 421.832V420.799L-629.931 420.11V419.25L-630.964 418.561L-631.997 415.462L-633.03 414.774L-634.063 411.675L-635.268 411.158L-635.785 409.092L-636.301 408.92V408.06L-636.817 407.887V407.027L-637.334 406.854V405.994L-637.85 405.821V404.961L-638.367 404.789V403.411L-639.4 402.895V401.346L-639.916 401.173L-640.433 399.28L-640.949 399.107L-641.121 397.73L-641.638 397.558L-641.982 395.492H-642.499L-643.187 392.566L-643.704 392.393V391.533L-644.22 391.361V389.467H-644.737V388.434H-645.253V386.54L-645.77 386.368V384.991L-646.286 384.819V383.441H-646.802L-647.491 379.998L-648.008 379.826L-648.524 375.522L-649.04 375.35V373.456L-649.557 373.284V371.391H-650.073V368.464H-650.59L-651.106 361.75L-651.795 361.578L-653 343.329H-652.484L-651.623 325.942L-651.106 326.114V323.187L-650.59 323.36V320.433L-650.073 320.605L-649.729 316.473H-649.213V314.063L-648.696 314.235V312.342L-648.18 312.514L-647.835 309.071L-647.319 309.243V307.866L-646.63 308.038V306.488L-646.286 306.661V304.767H-645.77V303.906H-645.253L-644.22 299.774L-643.704 299.947L-643.187 298.225H-642.671L-642.154 295.471L-641.638 295.643L-640.605 292.888L-640.261 293.06V292.2H-639.744L-639.228 289.789L-638.195 289.617L-637.678 287.379L-636.645 287.035V286.174L-635.612 285.313V284.453H-635.096V283.592H-634.579V282.731L-633.547 282.387L-632.686 279.632L-632.169 279.805L-631.653 278.427L-630.62 278.255V277.222L-629.587 277.05V276.017L-628.038 275.328L-627.521 273.607L-625.972 272.918V271.885L-624.422 271.369L-624.595 270.336L-622.012 268.959V267.926L-619.43 266.549V265.688L-617.364 264.483V263.622L-614.265 262.245V261.384L-610.65 259.146L-610.134 258.285L-609.101 258.457L-608.068 257.769L-608.24 256.736L-603.075 254.326V253.465L-598.944 251.743L-598.427 251.055H-597.394L-596.361 249.85L-595.328 250.194L-594.295 248.817L-593.262 248.989L-592.746 248.128L-591.369 247.956V247.612L-590.164 247.784L-589.819 246.923L-588.614 247.095L-588.27 246.234L-587.237 246.407L-573.981 237.455L-566.406 229.363L-565.718 229.535L-562.275 225.92H-561.758V225.059L-559.692 223.51L-558.143 223.338L-554.528 220.239L-539.722 209.738V208.705L-538.69 207.5L-537.657 206.639V205.778H-537.312V204.917L-536.279 204.573V203.712L-535.074 202.852L-535.246 201.991L-534.214 201.646V200.786L-533.181 200.441V199.581L-532.148 198.203L-531.115 198.031L-528.532 195.105L-525.606 191.834V190.973L-524.573 191.145L-521.818 189.768H-521.302V188.907L-519.236 187.874V187.358L-518.375 187.013V186.153L-515.277 184.259L-509.251 177.889L-508.218 178.061L-505.119 175.307L-504.087 175.479L-503.226 172.725L-502.021 172.897L-500.127 171.003L-499.094 171.175L-498.578 170.314L-497.545 170.487L-496.512 169.281L-492.036 166.183L-491.175 165.494L-490.486 165.15L-486.355 160.674L-486.01 158.952H-485.494L-484.977 157.747L-483.944 157.403V156.37L-482.912 156.198V155.165L-480.846 154.132L-480.329 152.238L-479.468 152.066L-478.78 150.861L-476.37 149.312V148.451L-473.787 146.901V146.041L-468.623 142.598L-468.106 141.392L-448.653 121.25L-447.62 120.906L-446.587 118.324L-445.554 117.979L-444.521 115.225L-444.005 115.397L-443.488 114.02L-442.627 113.848L-442.111 111.954L-440.562 111.438L-440.045 109.544L-438.496 109.027V107.995L-436.946 107.306V106.273L-435.913 106.101V105.068L-433.331 103.691V102.658L-430.921 101.28V100.42L-408.713 69.0876L-408.024 68.0547L-406.991 67.7104L-406.475 65.9889L-405.614 65.6445L-404.926 63.923L-404.065 63.5787V62.7179L-403.032 62.3736V61.3407L-401.999 61.1685V60.1356L-400.966 59.7913V58.9305L-399.417 58.2419V57.3811L-397.867 56.5203L-398.039 55.6596L-395.285 54.2824V53.4216L-392.875 51.8722V51.0114L-390.809 49.9785V48.9456L-389.776 48.0848L-388.743 48.4291" fill="#EDF2F8"/>
<path d="M-0.0200023 26.2214L1.3572 20.7125L2.39015 20.8846L3.93954 14.5149L4.97249 14.1706L5.48893 12.7934L6.00537 12.9656L6.52188 11.5883L7.55476 11.7605L9.62066 8.31738L10.6535 8.48954L12.5473 4.52999L13.7523 4.87428L15.646 0.398294L16.8511 0.57042L18.9169 -2.87265V-4.42204L19.9499 -4.5942V-5.97143L20.8107 -6.31575L21.3271 -8.55374H21.8436V-9.41453L22.8765 -9.75881L23.393 -12.5133L24.4259 -12.3412L24.9424 -15.6121L25.9753 -15.9564L26.4918 -19.7438L27.5247 -19.9159L27.869 -23.7033L28.9019 -24.0476V-26.4578L29.4184 -26.2856V-28.1793L30.4513 -28.5236L30.9678 -34.2047L32.0007 -34.549V-38.1643H32.5172V-39.7137L33.0336 -39.5415L33.3779 -41.7795H34.0665L35.0995 -42.1238L35.4438 -44.3618L36.9932 -44.534V-45.9112L38.0261 -45.7391L38.5425 -47.9771L40.0919 -48.1493V-49.6986L41.1249 -49.5265L42.1578 -52.7974L43.1907 -52.4531L43.7072 -55.2076L44.7401 -55.0354L48.3554 -63.1267L49.2161 -62.9545L49.7326 -65.709L50.9377 -65.5368L51.282 -68.6356L52.4871 -68.4634L52.8314 -72.7673L53.8643 -72.5952L55.4137 -78.9649H55.9302L56.4466 -83.613L57.4795 -83.7852L57.8239 -90.4992L58.8567 -90.6714V-92.7372L59.3733 -92.5651L60.9226 -95.6638L61.9555 -95.4917L63.5049 -96.6968L66.0873 -101.861L67.1202 -101.689L69.186 -106.165L70.2189 -105.993L84.3356 -145.933H84.8521L85.1964 -146.966H85.5407V-145.933L86.2293 -145.761V-144.9L86.7458 -144.728V-143.867L87.2622 -143.695V-142.834L87.7787 -142.662V-141.629H88.2952V-140.768L88.8116 -140.596V-139.563H89.3281L90.361 -136.464H90.8775L100.346 -119.938V-119.077L102.584 -117.183V-116.15L103.961 -114.945V-114.084L105.511 -112.879V-111.846L106.716 -111.158V-110.297L107.749 -109.608L108.265 -108.059H108.782V-107.026L109.814 -105.821V-104.96L110.331 -104.788V-103.927L111.364 -103.239L111.88 -101.173H112.397L113.602 -98.074L114.118 -97.9018V-96.5246H114.635L115.151 -94.4587L115.668 -94.2866L124.448 -81.7193V-80.8586L127.202 -78.4484V-77.5876L129.268 -75.6939V-74.661L130.817 -73.6281V-72.5952L131.85 -71.9065V-71.0458L133.4 -69.6685V-68.8078L134.433 -68.1192L134.949 -66.0533L135.982 -65.3647L137.187 -62.4381L138.22 -61.7494L138.736 -59.6836H139.253L139.769 -57.6177H140.286V-56.0683L140.802 -55.8962L141.319 -54.0025H141.835L142.352 -51.4202H142.868L151.82 -38.8529V-37.82L154.402 -35.4098V-34.549L155.952 -33.344V-32.3111L157.501 -31.1059V-30.2452L158.534 -29.5566L159.223 -28.0072L159.567 -27.835V-26.9742L160.772 -26.2856L161.289 -24.2198L162.322 -23.5312L163.354 -20.6046L163.871 -20.4324V-19.5716L164.387 -19.3995V-18.5387L164.904 -18.3665V-17.3336H165.42L166.453 -14.2348H166.97V-12.6854H167.658V-11.6525H168.003V-10.2753L168.691 -10.1031V-9.07021H169.208V-7.69298L169.724 -7.52082V-6.14359L170.241 -5.97143V-4.5942L170.757 -4.42204L173.856 0.398294L176.438 4.18568L176.955 4.35784L177.643 5.73507L179.193 7.1123V7.97306L180.226 8.66169V9.52245L181.775 10.8997V11.7605L182.808 12.4491L183.324 13.9985L183.841 14.1706L184.529 16.0643L185.39 16.7529V17.6137L186.423 18.8188V19.8517H186.94V20.8846H187.456V21.9176L188.489 22.6062V23.9834L189.178 24.1556V25.0163L189.522 25.1885L190.211 27.0822L190.727 27.2544V28.6316L191.243 28.8038V29.6645L191.76 29.8367L192.276 32.2468L192.793 32.419V33.7962H193.309L199.679 44.9863L201.573 46.8799L201.745 47.7407L203.294 48.9458V49.9787L204.327 50.4952V51.5281L207.942 57.3814L209.148 58.2421V59.1029L210.008 60.308L210.18 61.1688L210.697 61.3409V62.2017L211.213 62.3738V63.2346L211.73 63.4068V64.2675L212.246 64.4397L213.279 67.3663L213.796 67.5385L222.748 80.1057L223.781 81.6551L224.297 81.8273V82.688L226.363 84.5818V85.6147L227.912 86.6476V87.6805L229.462 89.0578V89.9185L230.495 90.6072V91.4679L231.528 92.1566L232.044 93.7059L232.56 93.8781L233.249 95.7718L234.282 96.4604L234.798 98.5262L237.381 103.691H238.069V104.207L236.52 104.896V105.24L235.487 105.068V105.585L234.454 105.412L233.421 106.79L232.733 106.618V107.478H232.216L231.872 108.339L230.667 108.167L230.323 109.544L228.601 110.577H228.084V111.094L227.224 110.749V111.266L225.674 111.954V112.987L224.641 113.159V114.192L222.403 115.225L219.821 117.119V118.152L219.305 117.98V119.013L217.927 119.701V120.218L216.722 120.046L216.206 120.906H214.14L208.975 122.284L207.426 123.489V124.005L206.393 123.833V124.349L205.36 124.177L204.327 125.382L203.294 125.21L202.778 126.071L201.573 125.899L198.646 128.653L197.613 128.481L195.892 130.031L194.514 130.375L193.998 131.58L192.276 131.752V132.785L190.899 133.99L190.211 133.818L190.383 134.334L188.661 134.506L188.317 135.367L186.595 135.023L186.079 135.884L185.046 135.712V136.228L184.013 136.056V136.572L181.947 136.056V136.572L178.848 137.089V137.433L177.299 137.261V137.605L176.266 137.433L175.75 138.294L173.684 138.466L168.175 142.081L160.944 145.524L149.238 151.205L147.688 152.411L141.491 158.092L139.941 159.125L135.293 159.813L134.088 161.018L129.44 161.535L128.924 162.396L126.858 162.568L125.825 163.773L124.792 163.601L124.275 164.461L122.21 164.634L121.177 165.839L119.111 166.872L118.078 166.699V167.732L117.045 167.388L116.012 168.765L114.979 168.421V168.937L113.774 168.765V169.282L112.741 169.626L112.913 170.487L111.88 170.831V171.348H109.814L109.298 172.208L98.6244 173.069L92.4269 165.494L90.8775 164.289L90.361 162.74L88.2952 161.018V159.985L86.7458 158.78V157.747L85.1964 156.542V155.682L83.9913 154.993V154.132L83.1305 153.271L82.4419 151.378L81.409 150.689L80.8925 148.623H80.376L79.8596 146.557H79.3432V145.524L78.8266 145.352L77.9659 144.319L77.4494 144.147L72.8013 137.605L68.8417 133.129V132.613L66.7759 130.891V130.031L61.6112 124.694V123.833L60.234 122.111V121.078L59.2011 120.562V119.529L58.1682 118.84V117.98L57.1352 117.291V116.258L56.1023 115.57V114.709L55.0694 114.02V112.987H54.5529L54.0364 110.921L53.0035 110.233L52.4871 108.339L51.9706 108.167L49.9048 105.068L49.5605 104.896V103.519L49.044 103.347L48.5275 101.453L48.0111 101.281L38.0261 87.6805V86.6476L35.2716 84.2374V83.3767L33.7222 81.9994V81.1387L32.1728 79.9336V79.0728L31.14 78.3842V77.3513L30.107 76.6626L29.5906 75.1133H29.0741L28.0412 72.0145L27.0082 71.3259L16.5068 52.9054L15.8182 51.1838L11.8586 47.2243V46.1913L9.62066 44.4698V43.4369L7.55476 41.7153V40.6824L6.52188 39.9938L6.00537 38.4444H5.48893V37.4115L4.45598 36.7228V35.8621L3.4231 35.1734L3.25091 34.1405L2.39015 33.4519L2.21802 32.5911L-0.364319 28.8038V28.4594L-0.0200023 28.6316V26.2214Z" fill="#EDF2F8"/>
<path d="M-2.77212 24.3276V22.9504L-3.28856 22.7782V21.7453H-3.80507V20.7124L-4.83795 20.0238V18.9909L-7.4203 16.7528V16.2364L-9.14181 15.3756V14.5148L-10.1748 14.1705L-10.6912 12.6211L-14.3065 9.17803V8.14511L-16.3723 6.42356V5.39064L-18.6104 3.66909V2.63618L-20.1597 1.4311V0.398184H-20.6762L-21.1926 -1.15121L-22.742 -2.35628L-23.775 -5.45507L-24.8079 -6.1437L-24.98 -7.17662L-26.013 -8.20953V-9.24248L-26.5294 -9.41464V-10.2754L-27.0459 -10.4476V-11.4805H-27.5623V-12.5134H-28.0788V-13.5463H-28.5953L-29.6282 -16.6451L-30.3169 -16.8173V-18.1945H-30.8333V-19.2274L-31.1776 -19.3996L-37.0309 -27.663V-28.5238L-38.0637 -29.2124V-29.7288L-39.0967 -29.901L-39.7853 -30.9339L-41.3347 -32.3112V-33.1719L-43.4006 -35.0656V-35.9264L-45.6386 -37.8201V-38.853L-46.4993 -39.3695L-47.188 -41.4353L-48.2209 -42.124V-43.1569L-49.2538 -43.6734L-50.2868 -46.7721L-51.3196 -47.4607L-52.0083 -49.5266L-53.0412 -50.2152V-51.5924L-53.5577 -51.7646V-52.7975H-54.0741V-53.6583L-54.5906 -53.8305V-54.8634H-55.1071L-56.14 -57.9622L-56.6565 -58.1343V-59.5116H-57.1729V-60.5445L-57.6893 -60.7166L-65.7806 -74.1446V-75.0054L-68.363 -77.4156V-78.4485L-70.6009 -80.1701L-70.9452 -81.7194L-71.9782 -82.4081L-72.6668 -84.4739L-74.2162 -85.679L-75.2491 -88.7778L-76.282 -89.4664V-90.4993L-77.315 -91.7044V-92.5652L-77.8314 -92.7373V-93.5981L-78.3479 -93.7703V-94.631L-79.0365 -94.8032V-95.6639L-79.3808 -95.8361L-80.5859 -98.9349H-81.1023L-81.6188 -102.034L-82.1353 -102.206L-82.8239 -103.067L-83.1682 -104.616L-86.4391 -110.986L-87.9885 -113.74L-89.0215 -113.912V-114.429L-90.743 -115.634V-116.667L-91.6038 -117.355V-118.216L-93.3253 -119.421V-120.454L-94.3582 -120.626L-94.8747 -122.176L-95.3912 -122.348L-95.9076 -123.725L-96.9406 -124.414L-97.6292 -126.48L-99.1786 -127.685L-100.211 -130.783L-101.244 -131.472V-132.505L-102.277 -133.538V-134.571L-102.794 -134.743V-135.604L-103.31 -135.776V-136.637L-103.827 -136.809L-103.999 -137.67L-104.343 -137.842L-104.515 -138.703L-104.86 -138.875L-106.065 -141.973L-106.581 -142.146V-143.523H-107.098V-145.072H-107.614V-146.622H-108.131V-148.171H-108.819V-149.548L-109.336 -149.72V-151.098L-109.68 -151.27L-109.852 -152.647L-110.369 -152.819V-154.713L-110.885 -154.885V-156.779H-111.402L-111.574 -158.845H-111.918L-112.434 -164.698L-113.123 -164.87L-113.64 -174.511L-114.156 -174.683L-113.812 -185.529H-113.295L-112.434 -194.825L-107.27 -209.63H-106.753L-105.893 -212.385L-105.376 -212.212V-213.073H-104.86V-214.106L-104.343 -213.934V-214.967L-103.827 -214.795V-215.828L-103.31 -215.656V-216.688L-102.277 -217.377V-218.41L-101.244 -218.754L-100.211 -221.337L-98.6621 -222.025L-98.1456 -223.747L-97.1127 -224.091L-96.5963 -225.468H-96.0798L-95.5633 -226.846L-94.5304 -226.501L-93.4975 -228.223H-92.981V-229.256L-90.3987 -231.494L-89.3657 -231.322L-89.5379 -231.838L-88.3329 -232.182V-233.043L-86.7835 -233.215V-234.248L-84.7176 -234.765L-82.1353 -237.175L-81.1023 -237.003L-81.2745 -237.519L-78.5201 -238.38L-78.6922 -239.413L-76.9707 -239.585V-240.101L-75.4213 -240.274L-74.9048 -241.134H-72.8389L-71.8061 -242.512L-68.7073 -242.856L-68.363 -243.717L-67.1579 -243.545L-66.1249 -244.233L-65.2642 -244.061L-65.092 -244.577L-64.0591 -244.405V-244.922L-63.0261 -244.577L-62.5097 -245.438L-60.4439 -245.61V-246.127L-57.3451 -246.471V-246.988L-55.7957 -246.643L-24.6357 -247.16L-7.93674 -243.545V-243.028L-2.08349 -241.479L9.79514 -235.97L13.066 -234.765V-234.42L14.099 -234.248V-233.732L18.7472 -231.322L19.2636 -230.289L20.2966 -230.116L21.3294 -228.911L22.3624 -228.739V-228.223H23.3953L24.084 -227.018L25.1169 -226.846V-226.329L26.1498 -226.157L27.1827 -224.952L28.2156 -224.78V-224.435L29.765 -223.747L30.2815 -222.542L33.3803 -220.992L34.0689 -219.959L35.6183 -219.271V-218.754L37.1677 -217.894V-217.033L39.75 -215.139V-214.623L40.7829 -214.45L43.3653 -211.007L45.6033 -209.63V-208.769L46.6362 -208.597L47.1526 -207.048L50.7679 -203.433V-202.572L52.4894 -201.195V-200.334L54.0388 -198.957V-198.096L55.0718 -197.407L55.5882 -195.858L57.654 -193.964V-192.931L59.2034 -191.726L60.4085 -188.799L61.4414 -188.111V-187.078L62.4744 -186.045V-185.012L62.9908 -184.84V-183.979L63.5073 -183.807V-182.946L64.0238 -182.774V-181.741H64.5402V-180.708H65.0567L66.6061 -177.437L76.2467 -160.91V-159.878H76.7632L77.7961 -158.156L79.3455 -156.951V-155.918L80.3784 -155.229L80.5506 -154.369L82.1 -153.164L82.6164 -151.098L84.1658 -149.893L84.6823 -148.515V-148.343L85.1988 -147.827V-146.966L84.8544 -145.933H84.338L70.2213 -105.993L69.1884 -106.165L67.1226 -101.689L66.0896 -101.862L63.5073 -96.6969L57.4819 -83.7853L56.449 -83.6132L55.9325 -78.965H55.4161L53.8667 -72.5953L52.8337 -72.7674L52.4894 -68.4636L51.2843 -68.6357L50.94 -65.5369L49.7349 -65.7091L49.2185 -62.9546L48.3577 -63.1268L44.7425 -55.0355L43.7096 -55.2077L43.1931 -52.4532L42.1602 -52.7975L41.1272 -49.5266L40.0943 -48.1494L38.0284 -45.7392L36.9956 -44.5341L32.0031 -34.5492L30.4537 -28.5238L29.4207 -28.1794V-26.2858L28.9043 -26.4579V-24.0477L27.8713 -23.7035L27.527 -20.0882L26.4941 -19.7439L25.9776 -15.9565L24.9447 -15.6122L24.4282 -12.3413L23.3953 -12.5134L22.8788 -9.75893L21.846 -9.41464V-8.55385H21.3294L20.813 -6.31586L19.7801 -5.97154V-4.59431L18.9193 -4.42215V-2.87276L16.8535 0.57031L15.6484 0.398184L13.7547 4.87417L12.5496 4.52988L10.6559 8.48943L2.3925 20.8845L-0.0176532 26.2213V28.6315L-0.36197 28.4593V28.2872H-0.706286L-2.08349 24.3276H-2.77212Z" fill="#EDF2F8"/>
<path d="M414.356 230.741L413.84 228.675L412.291 227.47L411.602 224.888H411.085L409.02 221.617L402.133 216.968V215.936L400.584 215.075L400.068 214.214L399.035 214.042L397.313 211.632L396.28 211.459L393.698 208.533L392.665 206.983L391.632 206.811L390.083 204.057L388.878 203.885L386.295 200.097L385.779 199.925V198.892L382.508 195.966V194.933L381.475 194.244V193.383L380.442 192.695V191.662L378.376 190.801L374.589 182.365L373.556 182.193L369.252 172.38L368.219 171.692V170.659L367.703 170.487L367.014 167.56L366.67 167.388L366.498 166.011H365.981V164.461L365.465 164.289V162.912H364.948V160.846H364.432L363.743 157.747H363.227V156.714H362.71V154.649H362.194V151.722L361.677 151.55V149.14H361.161V145.18H360.644L352.897 118.668L352.381 113.848L351.864 113.676V112.815L351.348 112.643L351.176 109.2L350.315 108.511L350.143 103.174L349.11 102.658L348.766 87.6805L349.971 87.3362V81.9994L351.004 82.3437L351.348 77.5234H351.864V75.6297L352.381 75.8019V73.3917L353.414 73.0474V71.1537L354.447 70.8094L354.963 67.5385L355.996 67.7106L357.545 62.7181L358.578 62.8903L358.406 61.5131L359.611 61.6852L363.743 55.1433L364.776 55.4876L366.325 52.3889L367.358 52.561V51.5281L368.391 51.7003L370.973 48.2572L372.006 48.6015V47.5686L373.556 47.9128L375.105 46.7078L374.933 45.847L376.138 46.0192V44.9863L377.171 45.1584L378.204 43.9533L379.237 44.1255L379.753 43.2647L381.303 43.0925V42.0596L383.885 40.6824L388.533 40.1659V39.133L393.87 38.6165L393.698 37.7558L398.518 37.0671L400.068 37.4115V36.895L401.101 37.0671V36.5507L403.166 36.895L403.683 36.2064L409.364 36.7228L409.88 35.8621L414.701 36.7228L415.217 35.8621L423.481 37.4115L424.686 37.0671L438.802 40.3381V41.1988L450.337 44.8141V45.847L452.919 46.1913L453.091 47.2242L461.527 49.8066L482.013 60.9966L485.456 62.8903V63.4068L487.694 63.751L488.211 64.784L490.277 65.1283V65.6448L491.826 65.9891V66.5055L493.375 66.6777V67.1941L495.441 67.5385V68.2271L502.844 71.498V72.3588L513.345 78.212V79.0728L515.239 79.9336L517.133 82.3437V82.688L518.165 82.8602L518.682 85.4425H519.371V87.3362L519.715 87.5084V88.3691L520.404 88.5413V90.0907H520.92V92.1565H521.436V93.1895H521.953V95.5996L522.986 96.2882L523.158 99.7313L524.191 100.42V104.724L525.224 105.412L525.396 113.504L526.429 120.046L525.912 119.873V121.939L525.396 121.767L525.568 130.03L524.363 130.203L524.535 134.679L523.502 134.851V138.294L522.469 138.466V141.048L521.953 140.876V141.909L521.436 141.737V143.803L520.92 143.631V144.491H520.576L519.887 147.762L519.543 147.59L519.026 150L517.821 149.828V151.722L516.788 151.378L516.96 153.443L515.927 153.271L514.894 156.37L513.862 156.198L512.829 158.952L511.279 159.641V161.018L509.213 163.601L508.18 163.256V164.289L507.148 164.117V165.15L506.115 164.978L502.499 169.454L501.294 169.282L501.466 170.315L496.818 172.38V173.241L493.547 174.274L493.72 175.135L484.94 181.677L483.735 181.505L483.907 182.882L482.702 183.226L482.874 184.087L481.152 184.776V185.809L479.603 186.497V187.53L477.537 188.563L476.504 189.768V190.801L475.471 190.457L473.405 192.695L472.889 192.523V193.383L471.339 194.072L470.823 194.933L469.962 194.761L453.263 207.156L452.747 206.983L452.23 208.361L451.197 208.705V209.738L450.165 209.91V210.771L449.132 211.115V212.148L447.582 212.837V213.87L446.033 214.386L445.516 215.763L443.45 216.796L440.352 219.206V220.067L438.802 220.239L435.704 223.166L434.671 222.994L434.154 223.855L433.121 223.51L431.572 225.232L429.85 225.404L429.334 226.265L428.301 226.093L427.957 226.953L426.924 226.781L426.235 227.642L425.374 227.47V227.986L423.653 228.158L423.136 229.019L422.103 228.847L421.07 230.052L420.038 229.88L417.455 232.807V233.84L416.939 233.323V232.807L416.25 232.979L414.873 230.913L414.356 230.741Z" fill="#DCE6F1"/>
<path d="M109.817 171.348H111.883V170.831L112.916 170.487L112.743 169.626L113.949 169.282V168.765L114.982 168.937V168.421L116.014 168.765L117.047 167.388L118.08 167.732V166.699L119.113 166.872L121.179 165.839L122.212 164.634L124.278 164.461L124.794 163.601L125.827 163.773L126.86 162.568L128.926 162.396L129.442 161.535L134.091 161.018L135.296 159.813L139.944 159.125L141.493 158.092L147.519 152.411L149.24 151.378L158.537 145.869L160.086 146.213V145.18L167.489 141.737L173.686 138.466L175.752 138.294L176.268 137.433L177.301 137.605V137.261L178.851 137.433V137.089L181.95 136.572V136.056L184.015 136.572V136.056L185.048 136.228V135.712L186.253 135.884L186.598 135.023L188.147 135.367L188.664 134.507L190.385 134.334V133.818L190.902 133.99L192.279 132.785V131.924L194 131.58L194.345 130.375L195.894 130.031L197.616 128.481L198.476 128.653L201.575 125.899L202.78 126.071L203.297 125.21L204.33 125.382L205.363 124.177L206.395 124.349V123.833L207.428 124.005V123.489L208.978 122.284L214.142 120.906L222.578 115.225L224.644 114.192V113.159L225.677 112.987V111.954L227.054 111.266V110.749L228.087 111.094V110.577H228.603L230.325 109.544L230.669 108.167L231.874 108.339L232.391 107.478H232.735V106.618L233.424 106.79L234.457 105.412L235.49 105.585V105.068L236.522 105.24V104.896L238.072 104.207V103.691H238.416H238.588V104.724L240.654 106.101V107.134L244.786 110.233L244.958 111.266L245.991 111.438V112.299L247.024 112.643V113.504L248.057 113.848V114.709L249.09 114.881L251.844 119.185L252.877 119.357L253.91 121.939L254.943 122.284V123.144L255.976 123.489L259.763 129.342L267.166 137.433V138.466L269.232 139.327V140.36L271.986 141.737V142.598L273.019 142.77V143.803L274.052 144.147V145.008L276.807 147.935L277.84 148.107V149.14L278.872 149.312V150.173L279.905 150.345L283.521 156.37L284.726 156.542V157.575L285.759 157.747V159.125L286.792 159.469L300.564 174.963V175.996L301.597 176.168L303.146 178.922L304.179 179.095V179.955L305.212 180.127L306.934 182.882L307.967 183.054V184.087L308.999 184.259L310.549 187.874L311.754 188.047V189.079L312.615 189.252L314.336 193.039L315.369 193.211V194.588L316.402 194.761L316.919 196.31L317.435 196.482L317.952 198.892L319.157 199.581V200.614L320.189 201.13V202.68L321.222 203.368L321.739 206.295L322.944 206.984V209.049H323.46L323.977 211.632L325.01 211.804L325.526 216.796H326.215V217.829H326.731V220.756L327.764 221.445L330.519 230.569L331.552 230.741L332.585 234.873L333.618 235.045L334.134 238.488L335.167 238.66L335.856 243.652L336.888 243.825L338.61 261.04L338.094 260.868L338.266 268.615L337.749 268.443V271.886L337.233 271.714V274.64L336.2 274.985L335.683 278.772L334.65 278.6L332.24 286.347L331.035 286.175L326.903 293.061L325.871 293.233H325.354V294.61L324.321 294.438V294.954L322.255 295.987L320.878 297.192V298.57L317.091 299.775V300.636L316.919 300.463L316.746 300.636H316.574L315.713 301.324H315.369L314.336 302.013L313.303 301.841V302.185H312.27V302.529L311.237 302.357L310.721 303.218L307.794 303.562L307.278 304.423L306.245 304.251L305.728 305.112L302.974 306.661L301.597 306.489V307.522L292.128 308.21V309.243L282.316 308.382V308.727L281.11 308.555V309.071L274.396 307.866L255.459 302.357V301.324L251.328 300.291L250.811 299.086L249.606 298.914V298.397L247.024 298.053V297.365L245.474 297.192V296.676L240.31 295.815L239.793 294.782L233.94 293.577L233.424 292.544L229.808 291.856V291.339L227.743 290.995V290.478L226.021 290.134V289.79L223.439 289.273L222.922 288.068L220.34 287.724V286.691L218.274 286.347L217.758 285.314L213.97 284.109V283.076L211.904 282.731V281.871L209.666 281.01L209.839 280.321L208.117 280.149V279.633L205.535 278.255V277.222L203.985 277.05V276.017L195.55 268.615L194.517 268.443V267.41L191.762 264.655L190.902 264.483L190.729 263.45L189.697 263.278V262.245L179.712 254.154L177.646 252.777L177.129 251.744L175.924 251.572V251.055L174.891 250.883V250.366L172.825 248.645L165.939 243.997V242.964L164.906 242.792V241.759L163.357 241.414V240.554L162.324 240.381V239.521L156.471 232.979L155.438 232.807V231.774L145.281 221.445V220.412L143.215 219.895V219.034L141.665 218.346V217.829L140.632 217.485L139.944 216.452L138.395 216.108L137.878 215.075L134.263 213.009V212.148L133.23 211.804V210.943L130.648 209.394V208.533L129.442 208.361V207.328L125.311 204.057V203.196L124.278 203.024L121.523 198.548L120.49 198.376V197.343H119.457L118.425 194.588L117.392 194.416V193.555L116.187 193.211V191.834L115.154 191.145V190.112H114.637L113.604 187.53L112.571 187.358V185.809L111.538 185.636L109.817 183.915L109.3 182.882V182.365L107.751 182.193V181.16L103.447 178.406V177.545L99.3155 174.791V173.758L98.4547 173.241H98.799L98.6268 173.069L109.3 172.208L109.817 171.348Z" fill="#DCE6F1"/>
</g>
</g>
</svg>
